
  <svg width="666.75" height="48" viewBox="0 0 3556 256" fill="none" xmlns="http://www.w3.org/2000/svg" xmlns:xlink="http://www.w3.org/1999/xlink" version="1.1">
    
        <g transform="translate(0, 0)">
          <svg xmlns="http://www.w3.org/2000/svg" width="256" height="256" fill="none" viewBox="0 0 256 256"><rect width="256" height="256" fill="#242938" rx="60"/><path fill="url(#paint0_linear_2_47)" d="M127.279 29C76.5066 29 79.6772 51.018 79.6772 51.018L79.7338 73.8284H128.185V80.6772H60.4893C60.4893 80.6772 28 76.9926 28 128.222C28 179.452 56.3573 177.636 56.3573 177.636H73.2812V153.863C73.2812 153.863 72.369 125.506 101.186 125.506H149.24C149.24 125.506 176.239 125.942 176.239 99.4123V55.5461C176.239 55.5461 180.338 29 127.279 29ZM100.563 44.339C105.384 44.339 109.28 48.2351 109.28 53.0556C109.28 57.8761 105.384 61.7723 100.563 61.7723C95.7426 61.7723 91.8465 57.8761 91.8465 53.0556C91.8465 48.2351 95.7426 44.339 100.563 44.339Z"/><path fill="url(#paint1_linear_2_47)" d="M128.721 227.958C179.493 227.958 176.323 205.941 176.323 205.941L176.266 183.13H127.815V176.281H195.511C195.511 176.281 228 179.966 228 128.736C228 77.5062 199.643 79.323 199.643 79.323H182.719V103.096C182.719 103.096 183.631 131.453 154.814 131.453H106.76C106.76 131.453 79.7607 131.016 79.7607 157.546V201.412C79.7607 201.412 75.6615 227.958 128.721 227.958ZM155.437 212.619C150.616 212.619 146.72 208.723 146.72 203.903C146.72 199.082 150.616 195.186 155.437 195.186C160.257 195.186 164.154 199.082 164.154 203.903C164.154 208.723 160.257 212.619 155.437 212.619Z"/><defs><linearGradient id="paint0_linear_2_47" x1="47.22" x2="146.333" y1="46.896" y2="145.02" gradientUnits="userSpaceOnUse"><stop stop-color="#387EB8"/><stop offset="1" stop-color="#366994"/></linearGradient><linearGradient id="paint1_linear_2_47" x1="108.056" x2="214.492" y1="109.905" y2="210.522" gradientUnits="userSpaceOnUse"><stop stop-color="#FFE052"/><stop offset="1" stop-color="#FFC331"/></linearGradient></defs></svg>
        </g>
         
        <g transform="translate(300, 0)">
          <svg xmlns="http://www.w3.org/2000/svg" width="256" height="256" fill="none" viewBox="0 0 256 256"><rect width="256" height="256" fill="#242938" rx="60"/><path fill="#fff" d="M84.7447 111.961C84.7447 114.395 85.0079 116.368 85.4684 117.816C85.9947 119.263 86.6526 120.842 87.5737 122.553C87.9026 123.079 88.0342 123.605 88.0342 124.066C88.0342 124.724 87.6395 125.382 86.7842 126.039L82.6395 128.803C82.0474 129.197 81.4553 129.395 80.929 129.395C80.2711 129.395 79.6132 129.066 78.9553 128.474C78.0342 127.487 77.2447 126.434 76.5869 125.382C75.929 124.263 75.2711 123.013 74.5474 121.5C69.4158 127.553 62.9684 130.579 55.2053 130.579C49.679 130.579 45.2711 129 42.0474 125.842C38.8237 122.684 37.179 118.474 37.179 113.211C37.179 107.618 39.1526 103.079 43.1658 99.6579C47.179 96.2368 52.5079 94.5263 59.2842 94.5263C61.5211 94.5263 63.8237 94.7237 66.2579 95.0526C68.6921 95.3816 71.1921 95.9079 73.8237 96.5V91.6974C73.8237 86.6974 72.7711 83.2105 70.7316 81.1711C68.6263 79.1316 65.0737 78.1447 60.0079 78.1447C57.7053 78.1447 55.3368 78.4079 52.9026 79C50.4684 79.5921 48.1 80.3158 45.7974 81.2368C44.7447 81.6974 43.9553 81.9605 43.4947 82.0921C43.0342 82.2237 42.7053 82.2895 42.4421 82.2895C41.5211 82.2895 41.0605 81.6316 41.0605 80.25V77.0263C41.0605 75.9737 41.1921 75.1842 41.5211 74.7237C41.85 74.2632 42.4421 73.8026 43.3632 73.3421C45.6658 72.1579 48.429 71.1711 51.6526 70.3816C54.8763 69.5263 58.2974 69.1316 61.9158 69.1316C69.7447 69.1316 75.4684 70.9079 79.1526 74.4605C82.7711 78.0132 84.6132 83.4079 84.6132 90.6447V111.961H84.7447ZM58.0342 121.961C60.2053 121.961 62.4421 121.566 64.8105 120.776C67.179 119.987 69.2842 118.539 71.0605 116.566C72.1132 115.316 72.9026 113.934 73.2974 112.355C73.6921 110.776 73.9553 108.868 73.9553 106.632V103.868C72.0474 103.408 70.0079 103.013 67.9026 102.75C65.7974 102.487 63.7579 102.355 61.7184 102.355C57.3105 102.355 54.0868 103.211 51.9158 104.987C49.7447 106.763 48.6921 109.263 48.6921 112.553C48.6921 115.645 49.4816 117.947 51.1263 119.526C52.7053 121.171 55.0079 121.961 58.0342 121.961ZM110.863 129.066C109.679 129.066 108.889 128.868 108.363 128.408C107.837 128.013 107.376 127.092 106.982 125.842L91.5211 74.9868C91.1263 73.6711 90.929 72.8158 90.929 72.3553C90.929 71.3026 91.4553 70.7105 92.5079 70.7105H98.9553C100.205 70.7105 101.061 70.9079 101.521 71.3684C102.047 71.7632 102.442 72.6842 102.837 73.9342L113.889 117.487L124.153 73.9342C124.482 72.6184 124.876 71.7632 125.403 71.3684C125.929 70.9737 126.85 70.7105 128.034 70.7105H133.297C134.547 70.7105 135.403 70.9079 135.929 71.3684C136.455 71.7632 136.916 72.6842 137.179 73.9342L147.574 118.013L158.955 73.9342C159.35 72.6184 159.811 71.7632 160.271 71.3684C160.797 70.9737 161.653 70.7105 162.837 70.7105H168.955C170.008 70.7105 170.6 71.2368 170.6 72.3553C170.6 72.6842 170.534 73.0132 170.468 73.4079C170.403 73.8026 170.271 74.3289 170.008 75.0526L154.153 125.908C153.758 127.224 153.297 128.079 152.771 128.474C152.245 128.868 151.389 129.132 150.271 129.132H144.613C143.363 129.132 142.508 128.934 141.982 128.474C141.455 128.013 140.995 127.158 140.732 125.842L130.534 83.4079L120.403 125.776C120.074 127.092 119.679 127.947 119.153 128.408C118.626 128.868 117.705 129.066 116.521 129.066H110.863ZM195.403 130.842C191.982 130.842 188.561 130.447 185.271 129.658C181.982 128.868 179.416 128.013 177.705 127.026C176.653 126.434 175.929 125.776 175.666 125.184C175.403 124.592 175.271 123.934 175.271 123.342V119.987C175.271 118.605 175.797 117.947 176.784 117.947C177.179 117.947 177.574 118.013 177.968 118.145C178.363 118.276 178.955 118.539 179.613 118.803C181.85 119.789 184.284 120.579 186.85 121.105C189.482 121.632 192.047 121.895 194.679 121.895C198.824 121.895 202.047 121.171 204.284 119.724C206.521 118.276 207.705 116.171 207.705 113.474C207.705 111.632 207.113 110.118 205.929 108.868C204.745 107.618 202.508 106.5 199.284 105.447L189.745 102.487C184.942 100.974 181.389 98.7368 179.218 95.7763C177.047 92.8816 175.929 89.6579 175.929 86.2368C175.929 83.4737 176.521 81.0395 177.705 78.9342C178.889 76.8289 180.468 74.9868 182.442 73.5395C184.416 72.0263 186.653 70.9079 189.284 70.1184C191.916 69.3289 194.679 69 197.574 69C199.021 69 200.534 69.0658 201.982 69.2632C203.495 69.4605 204.876 69.7237 206.258 69.9868C207.574 70.3158 208.824 70.6447 210.008 71.0395C211.192 71.4342 212.113 71.8289 212.771 72.2237C213.692 72.75 214.35 73.2763 214.745 73.8684C215.139 74.3947 215.337 75.1184 215.337 76.0395V79.1316C215.337 80.5132 214.811 81.2368 213.824 81.2368C213.297 81.2368 212.442 80.9737 211.324 80.4474C207.574 78.7368 203.363 77.8816 198.692 77.8816C194.942 77.8816 191.982 78.4737 189.942 79.7237C187.903 80.9737 186.85 82.8816 186.85 85.5789C186.85 87.4211 187.508 89 188.824 90.25C190.139 91.5 192.574 92.75 196.061 93.8684L205.403 96.8289C210.139 98.3421 213.561 100.447 215.6 103.145C217.639 105.842 218.626 108.934 218.626 112.355C218.626 115.184 218.034 117.75 216.916 119.987C215.732 122.224 214.153 124.197 212.113 125.776C210.074 127.421 207.639 128.605 204.811 129.461C201.85 130.382 198.758 130.842 195.403 130.842Z"/><path fill="#F90" fill-rule="evenodd" d="M207.837 162.816C186.192 178.803 154.745 187.29 127.705 187.29C89.8105 187.29 55.6658 173.276 29.8763 149.987C27.8369 148.145 29.679 145.645 32.1132 147.092C60.0079 163.276 94.4158 173.079 130.008 173.079C154.021 173.079 180.403 168.079 204.679 157.816C208.297 156.171 211.389 160.184 207.837 162.816Z" clip-rule="evenodd"/><path fill="#F90" fill-rule="evenodd" d="M216.85 152.553C214.087 149 198.561 150.842 191.521 151.697C189.416 151.961 189.087 150.118 190.995 148.737C203.363 140.053 223.692 142.553 226.061 145.447C228.429 148.408 225.403 168.737 213.824 178.474C212.047 179.987 210.337 179.197 211.126 177.224C213.758 170.711 219.613 156.039 216.85 152.553Z" clip-rule="evenodd"/></svg>
        </g>
         
        <g transform="translate(600, 0)">
          <svg width="256" height="256" viewBox="0 0 256 256" fill="none" xmlns="http://www.w3.org/2000/svg">
<rect width="256" height="256" rx="60" fill="#A9CBD4"/>
<g clip-path="url(#clip0_702_141)">
<path d="M162.998 138.677C155.218 138.677 148.244 142.124 143.468 147.55L131.23 138.886C132.529 135.31 133.275 131.469 133.275 127.449C133.275 123.499 132.555 119.722 131.299 116.199L143.509 107.627C148.285 113.025 155.241 116.453 162.998 116.453C177.356 116.453 189.04 104.772 189.04 90.4111C189.04 76.0505 177.356 64.3689 162.998 64.3689C148.639 64.3689 136.956 76.0505 136.956 90.4111C136.956 92.9814 137.344 95.46 138.041 97.8074L125.822 106.384C120.718 100.051 113.368 95.6302 104.995 94.2806V79.5542C116.791 77.0766 125.68 66.5956 125.68 54.072C125.68 39.7114 113.996 28.0298 99.6375 28.0298C85.2788 28.0298 73.5953 39.7114 73.5953 54.072C73.5953 66.4279 82.2533 76.7796 93.8138 79.4341V94.3517C78.0368 97.1211 66 110.89 66 127.449C66 144.089 78.156 157.908 94.0469 160.583V176.335C82.3682 178.902 73.5953 189.317 73.5953 201.757C73.5953 216.118 85.2788 227.8 99.6375 227.8C113.996 227.8 125.68 216.118 125.68 201.757C125.68 189.317 116.907 178.902 105.228 176.335V160.583C113.271 159.228 120.548 154.996 125.703 148.675L138.023 157.395C137.339 159.721 136.956 162.175 136.956 164.72C136.956 179.08 148.639 190.762 162.998 190.762C177.356 190.762 189.04 179.08 189.04 164.72C189.04 150.359 177.356 138.677 162.998 138.677ZM162.998 77.7846C169.961 77.7846 175.624 83.4502 175.624 90.4111C175.624 97.372 169.961 103.037 162.998 103.037C156.035 103.037 150.372 97.372 150.372 90.4111C150.372 83.4502 156.035 77.7846 162.998 77.7846ZM87.011 54.072C87.011 47.1111 92.6747 41.446 99.6375 41.446C106.6 41.446 112.264 47.1111 112.264 54.072C112.264 61.0329 106.6 66.698 99.6375 66.698C92.6747 66.698 87.011 61.0329 87.011 54.072ZM112.264 201.757C112.264 208.718 106.6 214.383 99.6375 214.383C92.6747 214.383 87.011 208.718 87.011 201.757C87.011 194.797 92.6747 189.131 99.6375 189.131C106.6 189.131 112.264 194.797 112.264 201.757ZM99.6365 145.058C89.9255 145.058 82.0255 137.16 82.0255 127.449C82.0255 117.738 89.9255 109.838 99.6365 109.838C109.347 109.838 117.247 117.738 117.247 127.449C117.247 137.16 109.347 145.058 99.6365 145.058ZM162.998 177.346C156.035 177.346 150.372 171.68 150.372 164.72C150.372 157.759 156.035 152.094 162.998 152.094C169.961 152.094 175.624 157.759 175.624 164.72C175.624 171.68 169.961 177.346 162.998 177.346Z" fill="black"/>
</g>
<defs>
<clipPath id="clip0_702_141">
<rect width="123.04" height="200" fill="white" transform="translate(66 28)"/>
</clipPath>
</defs>
</svg>

        </g>
         
        <g transform="translate(900, 0)">
          undefined
        </g>
         
        <g transform="translate(1200, 0)">
          <svg xmlns="http://www.w3.org/2000/svg" width="256" height="256" fill="none" viewBox="0 0 256 256"><rect width="256" height="256" fill="#2396ED" rx="60"/><path fill="#fff" d="M141.187 122.123H161.904V103.379H141.187V122.123ZM116.525 122.123H137.241V103.379H116.525V122.123ZM92.3554 122.123H113.072V103.379H92.3554V122.123ZM68.1859 122.123H88.4093V103.379H68.1859V122.123ZM43.5233 122.123H64.2399V103.379H43.5233V122.123ZM68.1859 99.4333H88.4093V80.6896H68.1859V99.4333ZM92.3554 99.4333H113.072V80.6896H92.3554V99.4333ZM116.525 99.4333H137.241V80.6896H116.525V99.4333ZM116.525 76.7436H137.241V58H116.525V76.7436ZM228 113.738C228 113.738 219.121 105.352 200.871 108.312C198.898 94.0075 183.607 85.6222 183.607 85.6222C183.607 85.6222 169.303 102.886 179.661 122.123C176.702 123.603 171.769 125.576 164.37 125.576H28.7257C26.2594 134.948 26.2594 197.097 94.3284 197.097C143.16 197.097 179.661 174.408 196.925 132.974C222.574 134.948 228 113.738 228 113.738Z"/></svg>
        </g>
         
        <g transform="translate(1500, 0)">
          <svg width="256" height="256" viewBox="0 0 256 256" fill="none" xmlns="http://www.w3.org/2000/svg">
<rect width="256" height="256" rx="60" fill="#242938"/>
<path fill-rule="evenodd" clip-rule="evenodd" d="M153.497 228V164.881L102.068 133.309V196.427L153.497 228ZM153.497 157.983L102.068 126.411V63.2666L153.497 94.8387V157.983Z" fill="#5C4EE5"/>
<path fill-rule="evenodd" clip-rule="evenodd" d="M210.613 126.385V63.2407L159.16 94.8128V157.957L210.613 126.385Z" fill="#4040B2"/>
<path fill-rule="evenodd" clip-rule="evenodd" d="M96.4291 122.717V59.5722L45 28V91.1442L96.4291 122.717Z" fill="#5C4EE5"/>
</svg>

        </g>
         
        <g transform="translate(1800, 0)">
          <svg xmlns="http://www.w3.org/2000/svg" width="256" height="256" fill="none" viewBox="0 0 256 256"><rect width="256" height="256" fill="#242938" rx="60"/><path fill="#336791" d="M203.48 148.688C183.16 152.878 181.684 145.995 181.684 145.995C203.15 114.143 212.129 73.7134 204.38 63.8204C183.259 36.8204 146.689 49.5962 146.077 49.9266L145.88 49.9618C141.414 49.0656 136.873 48.5924 132.317 48.5485C123.12 48.4079 116.145 50.9602 110.844 54.9751C110.844 54.9751 45.6078 28.1016 48.6453 88.7743C49.2922 101.684 67.1375 186.509 88.4422 160.845C96.2891 151.409 103.812 143.484 103.812 143.484C107.539 145.966 112.018 147.232 116.708 146.775L117.073 146.466C116.966 147.681 117.016 148.905 117.221 150.108C111.737 156.239 113.354 157.315 102.385 159.572C91.2898 161.857 97.8148 165.928 102.062 166.997C107.223 168.291 119.162 170.119 127.234 158.827L126.91 160.113C129.062 161.836 130.566 171.314 130.313 179.906C130.06 188.499 129.891 194.391 131.579 199.003C133.266 203.616 134.954 213.98 149.368 210.956C161.413 208.376 167.649 201.675 168.528 190.524C169.147 182.592 170.539 183.759 170.638 176.672L171.763 173.311C173.049 162.553 171.973 159.087 179.391 160.704L181.198 160.866C186.662 161.112 193.813 159.987 198.003 158.039C207.038 153.849 212.396 146.845 203.487 148.688H203.48Z"/><path stroke="#fff" stroke-linecap="round" stroke-linejoin="round" stroke-width="5.034" d="M146.07 48.5961C143.82 49.2993 182.38 34.4985 204.303 62.504C212.038 72.3969 203.073 112.827 181.606 144.678M128.098 153.784C127.536 173.795 128.239 193.946 130.194 198.784C132.148 203.621 136.346 213.198 150.767 210.118C162.812 207.538 167.199 202.538 169.098 191.506L173.548 156.231L128.098 153.784ZM110.816 53.4688C110.816 53.4688 45.5375 26.7782 48.575 87.4508C49.2219 100.36 67.0672 185.185 88.3719 159.521C96.1484 150.148 103.18 142.815 103.18 142.815L110.816 53.4688Z"/><path stroke="#fff" stroke-linecap="round" stroke-linejoin="bevel" stroke-width="5.034" d="M181.613 144.664C181.613 144.664 183.02 151.555 203.41 147.35C212.319 145.508 206.954 152.511 197.926 156.702C190.515 160.147 173.893 161.026 173.619 156.28C172.916 144.01 182.366 147.737 181.684 144.664C181.065 141.894 176.832 139.18 174.048 132.402C171.608 126.495 140.579 81.1438 182.654 87.8727C184.201 87.5563 171.685 47.7946 132.31 47.2181C92.9352 46.6415 94.1797 95.6282 94.1797 95.6282"/><path stroke="#fff" stroke-linejoin="round" stroke-width="5.034" d="M117.08 148.869C111.596 155 113.213 156.076 102.245 158.333C91.1492 160.618 97.6742 164.689 101.921 165.758C107.082 167.052 119.021 168.88 127.093 157.58C129.554 154.135 127.079 148.651 123.704 147.259C122.073 146.584 119.893 145.74 117.095 148.876L117.08 148.869Z"/><path stroke="#fff" stroke-linecap="round" stroke-linejoin="round" stroke-width="5.034" d="M116.722 148.763C116.159 145.156 117.903 140.874 119.766 135.854C122.565 128.331 129.02 120.807 123.859 96.9219C120.013 79.1329 94.1867 93.2165 94.1867 95.6282C94.1867 98.0399 95.3539 107.863 93.7648 119.288C91.6766 134.209 103.257 146.823 116.588 145.536"/><path fill="#fff" stroke="#fff" stroke-width="1.68" d="M110.577 95.2695C110.457 96.0922 112.088 98.293 114.205 98.5883C116.321 98.8836 118.128 97.168 118.248 96.3383C118.367 95.5086 116.736 94.6086 114.62 94.3133C112.503 94.018 110.682 94.4539 110.577 95.2695V95.2695Z"/><path fill="#fff" stroke="#fff" stroke-width=".837" d="M175.011 93.5891C175.123 94.4118 173.499 96.6125 171.383 96.9079C169.266 97.2032 167.445 95.4875 167.34 94.6579C167.234 93.8282 168.852 92.9282 170.968 92.6329C173.084 92.3375 174.905 92.7735 175.011 93.5891Z"/><path stroke="#fff" stroke-linecap="round" stroke-linejoin="round" stroke-width="5.034" d="M182.577 87.8867C182.928 94.3555 181.184 98.75 180.959 105.634C180.636 115.632 185.727 127.079 178.055 138.54"/></svg>
        </g>
         
        <g transform="translate(2100, 0)">
          <svg xmlns="http://www.w3.org/2000/svg" width="256" height="256" fill="none" viewBox="0 0 256 256"><rect width="256" height="256" fill="#242938" rx="60"/><g clip-path="url(#clip0_7_218)"><path fill="#A41E11" d="M220.161 174.468C209.488 180.035 154.204 202.765 142.434 208.899C130.663 215.034 124.126 214.976 114.826 210.532C105.526 206.089 46.6945 182.326 36.0904 177.257C30.7884 174.722 28.0101 172.591 28.0101 170.576V150.36C28.0101 150.36 104.609 133.685 116.978 129.247C129.348 124.809 133.627 124.65 144.157 128.505C154.687 132.359 217.606 143.711 228.003 147.523V167.459C228.003 169.458 225.607 171.7 220.172 174.479L220.161 174.468Z"/><path fill="#D82C20" d="M220.162 154.246C209.488 159.813 154.204 182.543 142.434 188.677C130.663 194.812 124.126 194.753 114.826 190.31C105.526 185.867 46.6946 162.103 36.0905 157.035C25.4864 151.966 25.2743 148.483 35.6822 144.405L116.973 112.932C129.338 108.5 133.622 108.335 144.151 112.19C154.681 116.045 209.632 137.916 220.024 141.786C230.416 145.657 230.824 148.732 220.151 154.299L220.162 154.246Z"/><path fill="#A41E11" d="M220.161 141.5C209.488 147.067 154.204 169.797 142.434 175.931C130.663 182.066 124.126 182.007 114.826 177.564C105.526 173.121 46.6945 149.357 36.0904 144.289C30.7884 141.754 28.0101 139.623 28.0101 137.608V117.391C28.0101 117.391 104.609 100.716 116.978 96.2787C129.348 91.8409 133.627 91.6818 144.157 95.5364C154.687 99.391 217.606 110.743 228.003 114.555V134.491C228.003 136.489 225.607 138.732 220.172 141.51L220.161 141.5Z"/><path fill="#D82C20" d="M220.162 121.283C209.488 126.85 154.204 149.58 142.434 155.715C130.663 161.849 124.126 161.791 114.826 157.348C105.526 152.904 46.6946 129.141 36.0905 124.072C25.4864 119.003 25.2743 115.52 35.6822 111.442L116.973 79.9748C129.338 75.537 133.622 75.378 144.151 79.2326C154.681 83.0871 209.632 104.963 220.034 108.765C230.437 112.567 230.835 115.711 220.162 121.278V121.283Z"/><path fill="#A41E11" d="M220.161 107.312C209.488 112.879 154.204 135.609 142.434 141.749C130.663 147.889 124.126 147.825 114.826 143.382C105.526 138.939 46.6945 115.175 36.0904 110.106C30.7884 107.572 28.0101 105.441 28.0101 103.426V83.1985C28.0101 83.1985 104.609 66.5236 116.978 62.0858C129.348 57.648 133.627 57.4889 144.157 61.3435C154.687 65.1981 217.606 76.5498 228.003 80.3619V100.298C228.003 102.297 225.607 104.539 220.172 107.318L220.161 107.312Z"/><path fill="#D82C20" d="M220.162 87.0902C209.488 92.6573 154.204 115.387 142.434 121.522C130.663 127.656 124.126 127.598 114.826 123.155C105.526 118.712 46.6946 94.9478 36.0905 89.8791C25.4864 84.8103 25.2743 81.3269 35.6822 77.2496L116.973 45.782C129.338 41.3442 133.622 41.1851 144.151 45.0397C154.681 48.8943 209.632 70.7705 220.034 74.5721C230.437 78.3736 230.835 81.5177 220.162 87.0849V87.0902Z"/><path fill="#fff" d="M132.996 78.7554L126.729 68.3369L106.719 66.5342L121.65 61.1473L117.169 52.8761L131.146 58.3372L144.326 54.0213L140.763 62.5682L154.199 67.6052L136.872 69.4079L132.996 78.7554ZM99.6143 99.497L145.954 92.3816L131.957 112.911L99.6143 99.497Z"/><path fill="#fff" d="M87.1226 92.0158C100.803 92.0158 111.894 87.7168 111.894 82.4138C111.894 77.1107 100.803 72.8118 87.1226 72.8118C73.4419 72.8118 62.3515 77.1107 62.3515 82.4138C62.3515 87.7168 73.4419 92.0158 87.1226 92.0158Z"/><path fill="#7A0C00" d="M202.113 81.0141L174.702 91.8408L174.681 70.1714L202.113 81.0141Z"/><path fill="#AD2115" d="M174.707 91.8408L171.738 93.0072L144.348 82.1805L174.691 70.1766L174.707 91.8408Z"/></g><defs><clipPath id="clip0_7_218"><rect width="200" height="200" fill="#fff" transform="translate(28 28)"/></clipPath></defs></svg>
        </g>
         
        <g transform="translate(2400, 0)">
          <svg width="256" height="256" viewBox="0 0 256 256" fill="none" xmlns="http://www.w3.org/2000/svg">
<rect width="256" height="256" rx="60" fill="#242938"/>
<path fill-rule="evenodd" clip-rule="evenodd" d="M76.0652 43C94.3271 43 109.13 57.8034 109.13 76.0652C109.13 94.3271 94.3271 109.13 76.0652 109.13C57.8034 109.13 43 94.3271 43 76.0652C43 57.8034 57.8034 43 76.0652 43Z" stroke="#2088FF" stroke-width="7.34783" stroke-linecap="round" stroke-linejoin="round"/>
<path fill-rule="evenodd" clip-rule="evenodd" d="M123.826 109.13C136 109.13 145.87 119 145.87 131.174C145.87 143.348 136 153.217 123.826 153.217C111.652 153.217 101.783 143.348 101.783 131.174C101.783 119 111.652 109.13 123.826 109.13Z" stroke="#2088FF" stroke-width="7.34783" stroke-linecap="round" stroke-linejoin="round"/>
<path fill-rule="evenodd" clip-rule="evenodd" d="M123.826 167.913C136 167.913 145.87 177.782 145.87 189.957C145.87 202.131 136 212 123.826 212C111.652 212 101.783 202.131 101.783 189.957C101.783 177.782 111.652 167.913 123.826 167.913Z" stroke="#2088FF" stroke-width="7.34783" stroke-linecap="round" stroke-linejoin="round"/>
<path fill-rule="evenodd" clip-rule="evenodd" d="M189.957 167.913C202.131 167.913 212 177.782 212 189.957C212 202.131 202.131 212 189.957 212C177.782 212 167.913 202.131 167.913 189.957C167.913 177.782 177.782 167.913 189.957 167.913Z" stroke="#79B8FF" stroke-width="7.34783" stroke-linecap="round" stroke-linejoin="round"/>
<path d="M131.308 126.056L120.032 137.317L114.555 131.859" stroke="#2088FF" stroke-width="7.34783" stroke-linecap="round" stroke-linejoin="round"/>
<path fill-rule="evenodd" clip-rule="evenodd" d="M189.957 109.13C202.131 109.13 212 119 212 131.174C212 143.348 202.131 153.217 189.957 153.217C177.782 153.217 167.913 143.348 167.913 131.174C167.913 119 177.782 109.13 189.957 109.13Z" stroke="#2088FF" stroke-width="7.34783" stroke-linecap="round" stroke-linejoin="round"/>
<path d="M197.438 126.056L186.162 137.317L180.686 131.859" stroke="#2088FF" stroke-width="7.34783" stroke-linecap="round" stroke-linejoin="round"/>
<path d="M65.0435 64.3532C65.0435 61.4617 68.2291 59.7035 70.6756 61.2446L89.461 73.0784C91.7583 74.5255 91.7462 77.8786 89.439 79.3093L70.6534 90.9574C68.206 92.4747 65.0435 90.7145 65.0435 87.8349V64.3532Z" stroke="#2088FF" stroke-width="7.34783" stroke-linecap="round" stroke-linejoin="round"/>
<path d="M72.3914 109.13V164.239C72.3914 178.442 84.0641 189.956 98.1087 189.956H101.783" stroke="#2088FF" stroke-width="7.34783" stroke-linecap="round" stroke-linejoin="round"/>
<path d="M101.595 134.847C103.624 134.847 105.269 133.203 105.269 131.173C105.269 129.144 103.624 127.5 101.595 127.5V134.847ZM68.7173 109.259C68.7173 123.391 80.1736 134.847 94.3054 134.847V127.5C84.2315 127.5 76.0651 119.333 76.0651 109.259H68.7173ZM94.3054 134.847H101.595V127.5H94.3054V134.847Z" fill="#2088FF"/>
<path d="M146.071 131.174H167.911" stroke="#2088FF" stroke-width="7.34783" stroke-linecap="round" stroke-linejoin="round"/>
<path fill-rule="evenodd" clip-rule="evenodd" d="M116.478 186.283C118.506 186.283 120.152 187.929 120.152 189.957C120.152 191.987 118.506 193.631 116.478 193.631C114.451 193.631 112.804 191.987 112.804 189.957C112.804 187.929 114.451 186.283 116.478 186.283Z" fill="#79B8FF"/>
<path fill-rule="evenodd" clip-rule="evenodd" d="M131.174 186.283C133.201 186.283 134.848 187.929 134.848 189.957C134.848 191.987 133.201 193.631 131.174 193.631C129.147 193.631 127.5 191.987 127.5 189.957C127.5 187.929 129.147 186.283 131.174 186.283Z" fill="#79B8FF"/>
<path d="M164.257 189.981L160.537 190.103" stroke="#79B8FF" stroke-width="7.34783" stroke-linecap="round"/>
</svg>

        </g>
         
        <g transform="translate(2700, 0)">
          <svg xmlns="http://www.w3.org/2000/svg" width="256" height="256" fill="none" viewBox="0 0 256 256"><rect width="256" height="256" fill="#007ACC" rx="60"/><path fill="#fff" d="M56.6112 128.849L56.5299 139.333H73.1902H89.8505L89.8505 186.673V234.012H101.635H113.419V186.673L113.419 139.333H130.079H146.739V129.052C146.739 123.363 146.618 118.609 146.455 118.487C146.333 118.325 126.056 118.243 101.472 118.284L56.7331 118.406L56.6112 128.849Z"/><path fill="#fff" d="M206.567 118.108C213.068 119.734 218.026 122.619 222.577 127.332C224.934 129.852 228.428 134.444 228.713 135.541C228.794 135.866 217.66 143.343 210.915 147.528C210.671 147.691 209.695 146.634 208.598 145.009C205.307 140.214 201.853 138.141 196.57 137.776C188.809 137.247 183.811 141.311 183.852 148.097C183.852 150.088 184.136 151.266 184.949 152.892C186.655 156.427 189.825 158.54 199.781 162.847C218.107 170.731 225.949 175.932 230.826 183.327C236.271 191.576 237.49 204.742 233.792 214.535C229.729 225.181 219.651 232.414 205.469 234.812C201.081 235.584 190.678 235.462 185.965 234.609C175.684 232.78 165.932 227.701 159.918 221.037C157.561 218.436 152.969 211.65 153.254 211.162C153.375 211 154.432 210.35 155.61 209.659C156.748 209.009 161.056 206.53 165.119 204.173L172.474 199.906L174.018 202.182C176.172 205.473 180.885 209.984 183.73 211.487C191.897 215.795 203.113 215.185 208.639 210.228C210.996 208.074 211.971 205.839 211.971 202.548C211.971 199.581 211.605 198.281 210.061 196.046C208.07 193.202 204.007 190.804 192.466 185.806C179.26 180.117 173.571 176.582 168.37 170.974C165.363 167.724 162.518 162.522 161.34 158.174C160.365 154.558 160.121 145.496 160.893 141.839C163.615 129.08 173.246 120.181 187.143 117.539C191.654 116.686 202.137 117.011 206.567 118.108Z"/></svg>
        </g>
         
        <g transform="translate(3000, 0)">
          <svg xmlns="http://www.w3.org/2000/svg" width="256" height="256" fill="none" viewBox="0 0 256 256"><rect width="256" height="256" fill="#242938" rx="60"/><path fill="#fff" d="M121.451 28.0537C121.021 28.0928 119.652 28.2297 118.42 28.3274C90.0137 30.8885 63.4057 46.216 46.5533 69.7742C37.1691 82.8729 31.1672 97.7312 28.8993 113.469C28.0978 118.963 28 120.586 28 128.034C28 135.483 28.0978 137.106 28.8993 142.599C34.3343 180.155 61.0596 211.71 97.306 223.401C103.797 225.493 110.639 226.92 118.42 227.78C121.451 228.112 134.549 228.112 137.58 227.78C151.011 226.294 162.389 222.971 173.611 217.242C175.331 216.363 175.664 216.128 175.429 215.933C175.273 215.815 167.941 205.981 159.144 194.095L143.152 172.492L123.112 142.834C112.086 126.529 103.015 113.195 102.936 113.195C102.858 113.176 102.78 126.353 102.741 142.443C102.682 170.615 102.663 171.749 102.311 172.413C101.803 173.371 101.412 173.762 100.59 174.193C99.9648 174.505 99.4174 174.564 96.4653 174.564H93.0831L92.1838 173.997C91.5973 173.626 91.1672 173.137 90.8739 172.57L90.4633 171.69L90.5024 132.492L90.5611 93.2737L91.1672 92.5112C91.48 92.1007 92.1447 91.5728 92.6139 91.3186C93.4154 90.9276 93.7283 90.8885 97.1105 90.8885C101.099 90.8885 101.763 91.0449 102.8 92.1789C103.093 92.4917 113.943 108.836 126.925 128.523C139.906 148.21 157.658 175.092 166.377 188.288L182.213 212.277L183.015 211.749C190.111 207.135 197.619 200.566 203.562 193.723C216.211 179.197 224.364 161.485 227.101 142.599C227.902 137.106 228 135.483 228 128.034C228 120.586 227.902 118.963 227.101 113.469C221.666 75.913 194.94 44.3587 158.694 32.6676C152.301 30.5953 145.498 29.1681 137.873 28.3079C135.996 28.1124 123.073 27.8973 121.451 28.0537ZM162.389 88.5425C163.327 89.0117 164.09 89.911 164.364 90.8494C164.52 91.3577 164.559 102.228 164.52 126.724L164.461 161.876L158.264 152.374L152.047 142.873V117.321C152.047 100.801 152.125 91.5141 152.242 91.0645C152.555 89.9697 153.239 89.1095 154.178 88.6011C154.979 88.1906 155.273 88.1515 158.342 88.1515C161.236 88.1515 161.744 88.1906 162.389 88.5425Z"/></svg>
        </g>
         
        <g transform="translate(3300, 0)">
          <svg width="256" height="256" viewBox="0 0 256 256" fill="none" xmlns="http://www.w3.org/2000/svg">
<rect width="256" height="256" rx="60" fill="#242938"/>
<path fill-rule="evenodd" clip-rule="evenodd" d="M93.213 222.94L50 48L223.23 97.874L93.213 222.94Z" stroke="white" stroke-width="4" stroke-miterlimit="10" stroke-linejoin="round"/>
<path fill-rule="evenodd" clip-rule="evenodd" d="M136.583 72.9419L158.174 160.438L71.6071 135.493L136.583 72.9419Z" stroke="white" stroke-width="4" stroke-miterlimit="10" stroke-linejoin="round"/>
<path fill-rule="evenodd" clip-rule="evenodd" d="M115.103 147.36L104.379 103.895L147.387 116.241L115.103 147.36Z" stroke="white" stroke-width="4" stroke-miterlimit="10" stroke-linejoin="round"/>
<path fill-rule="evenodd" clip-rule="evenodd" d="M93.6509 60.4829L104.375 103.948L61.3669 91.6019L93.6509 60.4829Z" stroke="white" stroke-width="4" stroke-miterlimit="10" stroke-linejoin="round"/>
<path fill-rule="evenodd" clip-rule="evenodd" d="M179.663 85.2598L190.387 128.725L147.379 116.379L179.663 85.2598Z" stroke="white" stroke-width="4" stroke-miterlimit="10" stroke-linejoin="round"/>
<path fill-rule="evenodd" clip-rule="evenodd" d="M115.108 147.39L125.832 190.855L82.824 178.509L115.108 147.39Z" stroke="white" stroke-width="4" stroke-miterlimit="10" stroke-linejoin="round"/>
</svg>

        </g>
        
  </svg>
  