<svg xmlns="http://www.w3.org/2000/svg" width="1012" height="686" viewBox="0 0 1012 686" fill="none" font-family="'Segoe UI',Inter,system-ui,sans-serif">

<defs>
  <linearGradient id="tbg" x1="0" y1="0" x2="1" y2="1">
    <stop offset="0" stop-color="#070A12"/><stop offset="1" stop-color="#0A0712"/>
  </linearGradient>
  <filter id="tg" x="-50%" y="-50%" width="200%" height="200%">
    <feGaussianBlur stdDeviation="2.4" result="b"/><feMerge><feMergeNode in="b"/><feMergeNode in="SourceGraphic"/></feMerge>
  </filter>
</defs>
<rect width="1012" height="686" rx="18" fill="url(#tbg)"/>
<rect x="1" y="1" width="1010" height="684" rx="17" fill="none" stroke="#1b2740"/>
<text x="34" y="40" fill="#E6EDF6" font-size="18" font-weight="800" letter-spacing="1">⚙️ STACK · isometric</text>
<g filter="url(#tg)"><animateTransform attributeName="transform" type="translate" values="0 0; 0 -6; 0 0" dur="3.0s" begin="0.00s" repeatCount="indefinite" additive="sum"/><polygon points="64,130 110,153.0 110,175.0 64,152" fill="#1e405e"/><polygon points="110,153.0 156,130 156,152 110,175.0" fill="#142c40"/><polygon points="110,107.0 156,130 110,153.0 64,130" fill="#0d1424" stroke="#3776AB" stroke-width="1.5"/><polygon points="110,107.0 156,130 110,153.0 64,130" fill="#3776AB" fill-opacity="0.10"/><g transform="translate(93,113) scale(1.4166666666666667)"><path d="M14.25.18l.9.2.73.26.59.3.45.32.34.34.25.34.16.33.1.3.04.26.02.2-.01.13V8.5l-.05.63-.13.55-.21.46-.26.38-.3.31-.33.25-.35.19-.35.14-.33.1-.3.07-.26.04-.21.02H8.77l-.69.05-.59.14-.5.22-.41.27-.33.32-.27.35-.2.36-.15.37-.1.35-.07.32-.04.27-.02.21v3.06H3.17l-.21-.03-.28-.07-.32-.12-.35-.18-.36-.26-.36-.36-.35-.46-.32-.59-.28-.73-.21-.88-.14-1.05-.05-1.23.06-1.22.16-1.04.24-.87.32-.71.36-.57.4-.44.42-.33.42-.24.4-.16.36-.1.32-.05.24-.01h.16l.06.01h8.16v-.83H6.18l-.01-2.75-.02-.37.05-.34.11-.31.17-.28.25-.26.31-.23.38-.2.44-.18.51-.15.58-.12.64-.1.71-.06.77-.04.84-.02 1.27.05zm-6.3 1.98l-.23.33-.08.41.08.41.23.34.33.22.41.09.41-.09.33-.22.23-.34.08-.41-.08-.41-.23-.33-.33-.22-.41-.09-.41.09zm13.09 3.95l.28.06.32.12.35.18.36.27.36.35.35.47.32.59.28.73.21.88.14 1.04.05 1.23-.06 1.23-.16 1.04-.24.86-.32.71-.36.57-.4.45-.42.33-.42.24-.4.16-.36.09-.32.05-.24.02-.16-.01h-8.22v.82h5.84l.01 2.76.02.36-.05.34-.11.31-.17.29-.25.25-.31.24-.38.2-.44.17-.51.15-.58.13-.64.09-.71.07-.77.04-.84.01-1.27-.04-1.07-.14-.9-.2-.73-.25-.59-.3-.45-.33-.34-.34-.25-.34-.16-.33-.1-.3-.04-.25-.02-.2.01-.13v-5.34l.05-.64.13-.54.21-.46.26-.38.3-.32.33-.24.35-.2.35-.14.33-.1.3-.06.26-.04.21-.02.13-.01h5.84l.69-.05.59-.14.5-.21.41-.28.33-.32.27-.35.2-.36.15-.36.1-.35.07-.32.04-.28.02-.21V6.07h2.09l.14.01zm-6.47 14.25l-.23.33-.08.41.08.41.23.33.33.23.41.08.41-.08.33-.23.23-.33.08-.41-.08-.41-.23-.33-.33-.23-.41-.08-.41.08z" fill="#3776AB"/></g><text x="110" y="182" text-anchor="middle" fill="#9DB0CC" font-size="12" font-weight="600">Python</text></g>
<g filter="url(#tg)"><animateTransform attributeName="transform" type="translate" values="0 0; 0 -6; 0 0" dur="3.3s" begin="0.18s" repeatCount="indefinite" additive="sum"/><polygon points="232,130 278,153.0 278,175.0 232,152" fill="#7c310f"/><polygon points="278,153.0 324,130 324,152 278,175.0" fill="#55220a"/><polygon points="278,107.0 324,130 278,153.0 232,130" fill="#0d1424" stroke="#E25A1C" stroke-width="1.5"/><polygon points="278,107.0 324,130 278,153.0 232,130" fill="#E25A1C" fill-opacity="0.10"/><g transform="translate(261,113) scale(1.4166666666666667)"><path d="M10.812 0c-.425.013-.845.215-1.196.605a3.593 3.593 0 00-.493.722c-.355.667-.425 1.415-.556 2.143a551.9 551.9 0 00-.726 4.087c-.027.16-.096.227-.244.273C5.83 8.386 4.06 8.94 2.3 9.514c-.387.125-.773.289-1.114.506-1.042.665-1.196 1.753-.415 2.71.346.422.79.715 1.284.936 1.1.49 2.202.976 3.3 1.47.019.01.036.013.053.019h-.004l1.306.535c0 .023.002.045 0 .073-.2 2.03-.39 4.063-.58 6.095-.04.419-.012.831.134 1.23.317.87 1.065 1.148 1.881.701.372-.204.666-.497.937-.818 1.372-1.623 2.746-3.244 4.113-4.872.111-.133.205-.15.363-.098.349.117.697.231 1.045.347h.001c.02.012.045.02.073.03l.142.042c1.248.416 2.68.775 3.929 1.19.4.132.622.164 1.045.098.311-.048.592-.062.828-.236.602-.33.995-.957.988-1.682-.005-.427-.154-.813-.35-1.186-.82-1.556-1.637-3.113-2.461-4.666-.078-.148-.076-.243.037-.375 1.381-1.615 2.756-3.236 4.133-4.855.272-.32.513-.658.653-1.058.308-.878-.09-1.57-1-1.741a2.783 2.783 0 00-1.235.069c-1.974.521-3.947 1.041-5.918 1.57-.175.047-.26.015-.355-.144a353.08 353.08 0 00-2.421-4.018 4.61 4.61 0 00-.652-.849c-.371-.37-.802-.549-1.227-.536zm.172 3.703a.592.592 0 01.189.211c.87 1.446 1.742 2.89 2.609 4.338.07.118.135.16.277.121 1.525-.41 3.052-.813 4.579-1.217.367-.098.735-.193 1.103-.289a.399.399 0 01-.1.2c-1.259 1.48-2.516 2.962-3.779 4.438-.11.13-.12.22-.04.37.937 1.803 1.768 3.309 2.498 4.76l-3.696-1.019c-.538-.18-1.077-.358-1.615-.539-.163-.055-.25-.03-.36.1-1.248 1.488-2.504 2.97-3.759 4.454a.398.398 0 01-.18.132c.035-.378.068-.757.104-1.136.149-1.572.297-3.144.451-4.716-.03-.318.117-.405-.322-.545-1.493-.593-3.346-1.321-4.816-1.905a.595.595 0 01.24-.134c1.797-.57 3.595-1.14 5.394-1.705.127-.04.199-.092.211-.233.013-.148.05-.294.076-.441.241-1.363.483-2.726.726-4.088.068-.386.14-.771.21-1.157z" fill="#E25A1C"/></g><text x="278" y="182" text-anchor="middle" fill="#9DB0CC" font-size="12" font-weight="600">Spark</text></g>
<g filter="url(#tg)"><animateTransform attributeName="transform" type="translate" values="0 0; 0 -6; 0 0" dur="3.6s" begin="0.36s" repeatCount="indefinite" additive="sum"/><polygon points="400,130 446,153.0 446,175.0 400,152" fill="#8c8c8c"/><polygon points="446,153.0 492,130 492,152 446,175.0" fill="#606060"/><polygon points="446,107.0 492,130 446,153.0 400,130" fill="#0d1424" stroke="#FFFFFF" stroke-width="1.5"/><polygon points="446,107.0 492,130 446,153.0 400,130" fill="#FFFFFF" fill-opacity="0.10"/><g transform="translate(429,113) scale(1.4166666666666667)"><path d="M9.71 2.136a1.43 1.43 0 0 0-2.047 0h-.007a1.48 1.48 0 0 0-.421 1.042c0 .41.161.777.422 1.039l.007.007c.257.264.616.426 1.019.426.404 0 .766-.162 1.027-.426l.003-.007c.261-.262.421-.629.421-1.039 0-.408-.159-.777-.421-1.042H9.71zM8.683 22.295c.404 0 .766-.167 1.027-.429l.003-.008c.261-.261.421-.631.421-1.036 0-.41-.159-.778-.421-1.044H9.71a1.42 1.42 0 0 0-1.027-.432 1.4 1.4 0 0 0-1.02.432h-.007c-.26.266-.422.634-.422 1.044 0 .406.161.775.422 1.036l.007.008c.258.262.617.429 1.02.429zm7.89-4.462c.359-.096.683-.33.882-.684l.027-.052a1.47 1.47 0 0 0 .114-1.067 1.454 1.454 0 0 0-.675-.896l-.021-.014a1.425 1.425 0 0 0-1.078-.132c-.36.091-.684.335-.881.686-.2.349-.241.75-.146 1.119.099.363.33.691.675.896h.002c.346.203.737.239 1.101.144zm-6.405-7.342a2.083 2.083 0 0 0-1.485-.627c-.58 0-1.103.242-1.482.627-.378.385-.612.916-.612 1.507s.233 1.124.612 1.514a2.08 2.08 0 0 0 2.967 0c.379-.39.612-.923.612-1.514s-.233-1.122-.612-1.507zm-.835-2.51c.843.141 1.6.552 2.178 1.144h.004c.092.093.182.196.265.299l1.446-.851a3.176 3.176 0 0 1-.047-1.808 3.149 3.149 0 0 1 1.456-1.926l.025-.016a3.062 3.062 0 0 1 2.345-.306c.77.21 1.465.721 1.898 1.482v.002c.431.757.518 1.626.313 2.408a3.145 3.145 0 0 1-1.456 1.928l-.198.118h-.02a3.095 3.095 0 0 1-2.154.201 3.127 3.127 0 0 1-1.514-.944l-1.444.848a4.162 4.162 0 0 1 0 2.879l1.444.846c.413-.47.939-.789 1.514-.944a3.041 3.041 0 0 1 2.371.319l.048.023v.002a3.17 3.17 0 0 1 1.408 1.906 3.215 3.215 0 0 1-.313 2.405l-.026.053-.003-.005a3.147 3.147 0 0 1-1.867 1.436 3.096 3.096 0 0 1-2.371-.318v-.006a3.156 3.156 0 0 1-1.456-1.927 3.175 3.175 0 0 1 .047-1.805l-1.446-.848a3.905 3.905 0 0 1-.265.294l-.004.005a3.938 3.938 0 0 1-2.178 1.138v1.699a3.09 3.09 0 0 1 1.56.862l.002.004c.565.572.914 1.368.914 2.243 0 .873-.35 1.664-.914 2.239l-.002.009a3.1 3.1 0 0 1-2.21.931 3.1 3.1 0 0 1-2.206-.93h-.002v-.009a3.186 3.186 0 0 1-.916-2.239c0-.875.35-1.672.916-2.243v-.004h.002a3.1 3.1 0 0 1 1.558-.862v-1.699a3.926 3.926 0 0 1-2.176-1.138l-.006-.005a4.098 4.098 0 0 1-1.173-2.874c0-1.122.452-2.136 1.173-2.872h.006a3.947 3.947 0 0 1 2.176-1.144V6.289a3.137 3.137 0 0 1-1.558-.864h-.002v-.004a3.192 3.192 0 0 1-.916-2.243c0-.871.35-1.669.916-2.243l.002-.002A3.084 3.084 0 0 1 8.683 0c.861 0 1.641.355 2.21.932v.002h.002c.565.574.914 1.372.914 2.243 0 .876-.35 1.667-.914 2.243l-.002.005a3.142 3.142 0 0 1-1.56.864v1.692zm8.121-1.129l-.012-.019a1.452 1.452 0 0 0-.87-.668 1.43 1.43 0 0 0-1.103.146h.002c-.347.2-.58.529-.677.896-.095.365-.054.768.146 1.119l.007.009c.2.347.519.579.874.673.357.103.755.059 1.098-.144l.019-.009a1.47 1.47 0 0 0 .657-.885 1.493 1.493 0 0 0-.141-1.118" fill="#FFFFFF"/></g><text x="446" y="182" text-anchor="middle" fill="#9DB0CC" font-size="12" font-weight="600">Kafka</text></g>
<g filter="url(#tg)"><animateTransform attributeName="transform" type="translate" values="0 0; 0 -6; 0 0" dur="3.9s" begin="0.54s" repeatCount="indefinite" additive="sum"/><polygon points="568,130 614,153.0 614,175.0 568,152" fill="#0c627f"/><polygon points="614,153.0 660,130 660,152 614,175.0" fill="#084458"/><polygon points="614,107.0 660,130 614,153.0 568,130" fill="#0d1424" stroke="#17B3E8" stroke-width="1.5"/><polygon points="614,107.0 660,130 614,153.0 568,130" fill="#17B3E8" fill-opacity="0.10"/><g transform="translate(597,113) scale(1.4166666666666667)"><path d="M17.195 16.822l4.002-4.102C23.55 10.308 23.934 5.154 24 .43a.396.396 0 0 0-.246-.373.392.392 0 0 0-.437.09l-6.495 6.658-4.102-4.003C10.309.45 5.154.066.43 0H.423a.397.397 0 0 0-.277.683l6.658 6.494-4.003 4.103C.45 13.692.065 18.846 0 23.57a.398.398 0 0 0 .683.282l6.494-6.657 3.934 3.837.17.165c2.41 2.353 7.565 2.737 12.288 2.803h.006a.397.397 0 0 0 .277-.683l-6.657-6.495zm-.409-9.476c.04.115.05.24.031.344-.17.96-1.593 2.538-4.304 3.87a.597.597 0 0 0-.08-.079c1.432-3.155 1.828-5.61 1.175-7.322l3.058 2.984.12.203zm-.131 9.44a.73.73 0 0 1-.347.031c-.96-.171-2.537-1.594-3.87-4.307a.656.656 0 0 0 .08-.078l-.001.001c3.155 1.432 5.61 1.83 7.324 1.174l-2.969 3.043M23.568.392a.05.05 0 0 1 .052-.011c.018.006.03.024.029.043-.065 4.655-.437 9.726-2.703 12.05-1.53 1.565-4.326 1.419-8.283-.377.006-.037.021-.07.02-.108 0-.044-.017-.082-.026-.123 2.83-1.39 4.315-3.037 4.506-4.115.057-.322-.009-.542-.102-.688l6.507-6.67V.392zM.393.43A.045.045 0 0 1 .382.38C.39.36.403.343.425.35c4.655.065 9.727.438 12.05 2.703l.002.002c1.56 1.527 1.415 4.323-.379 8.28-.033-.005-.062-.02-.097-.02h-.008c-.045.001-.084.019-.126.027-1.39-2.83-3.037-4.314-4.115-4.506-.323-.057-.542.01-.688.103L.393.43zm11.94 11.563a.331.331 0 0 1-.327.335H12a.332.332 0 0 1-.004-.661c.172.016.333.144.335.326h.002zm-5.12 4.661a.722.722 0 0 1-.03-.345c.17-.96 1.595-2.54 4.309-3.873.013.016.019.035.033.05.013.012.03.017.044.028-1.434 3.158-1.83 5.613-1.177 7.326l-3.041-2.967m-.006-9.659a.735.735 0 0 1 .345-.031c.961.17 2.54 1.594 3.871 4.306a.597.597 0 0 0-.079.08c-2.167-.983-4.007-1.484-5.498-1.484-.68 0-1.289.103-1.825.308L7.128 7.35M.43 23.607c-.018.018-.038.015-.052.01-.019-.007-.028-.021-.028-.043.065-4.654.437-9.725 2.703-12.049 1.527-1.565 4.325-1.419 8.286.378-.006.035-.02.067-.02.104 0 .043.018.083.026.124-2.831 1.391-4.317 3.04-4.51 4.117-.057.322.01.542.103.688L.43 23.607zm23.144.042c-4.655-.065-9.726-.437-12.05-2.703l-.005-.006c-1.56-1.526-1.412-4.322.383-8.279.033.005.064.02.098.02h.009c.043 0 .08-.018.122-.027 1.39 2.832 3.036 4.317 4.115 4.51.083.014.16.021.23.021a.776.776 0 0 0 .45-.133l6.68 6.516c.02.02.016.04.01.052a.042.042 0 0 1-.042.029z" fill="#17B3E8"/></g><text x="614" y="182" text-anchor="middle" fill="#9DB0CC" font-size="12" font-weight="600">Airflow</text></g>
<g filter="url(#tg)"><animateTransform attributeName="transform" type="translate" values="0 0; 0 -6; 0 0" dur="4.2s" begin="0.72s" repeatCount="indefinite" additive="sum"/><polygon points="736,130 782,153.0 782,175.0 736,152" fill="#8c3929"/><polygon points="782,153.0 828,130 828,152 782,175.0" fill="#60271c"/><polygon points="782,107.0 828,130 782,153.0 736,130" fill="#0d1424" stroke="#FF694B" stroke-width="1.5"/><polygon points="782,107.0 828,130 782,153.0 736,130" fill="#FF694B" fill-opacity="0.10"/><text x="782" y="135" text-anchor="middle" fill="#FF694B" font-size="13" font-weight="800">dbt</text><text x="782" y="182" text-anchor="middle" fill="#9DB0CC" font-size="12" font-weight="600">dbt</text></g>
<g filter="url(#tg)"><animateTransform attributeName="transform" type="translate" values="0 0; 0 -6; 0 0" dur="4.5s" begin="0.90s" repeatCount="indefinite" additive="sum"/><polygon points="64,262 110,285.0 110,307.0 64,284" fill="#16637f"/><polygon points="110,285.0 156,262 156,284 110,307.0" fill="#0f4458"/><polygon points="110,239.0 156,262 110,285.0 64,262" fill="#0d1424" stroke="#29B5E8" stroke-width="1.5"/><polygon points="110,239.0 156,262 110,285.0 64,262" fill="#29B5E8" fill-opacity="0.10"/><g transform="translate(93,245) scale(1.4166666666666667)"><path d="M24 3.459c0 .646-.418 1.18-1.141 1.18-.723 0-1.142-.534-1.142-1.18 0-.647.419-1.18 1.142-1.18.723 0 1.141.533 1.141 1.18zm-.228 0c0-.533-.38-.951-.913-.951s-.913.38-.913.95c0 .533.38.952.913.952.57 0 .913-.419.913-.951zm-1.37-.533h.495c.266 0 .456.152.456.38 0 .153-.076.229-.19.305l.19.266v.038h-.266l-.19-.266h-.229v.266h-.266zm.495.228h-.229v.267h.229c.114 0 .152-.038.152-.114.038-.077-.038-.153-.152-.153zM7.602 12.4c.038-.151.076-.304.076-.456 0-.114-.038-.228-.038-.342-.114-.343-.304-.647-.646-.838l-4.87-2.777c-.685-.38-1.56-.152-1.94.533-.381.685-.153 1.56.532 1.94l2.701 1.56-2.701 1.56c-.685.38-.913 1.256-.533 1.94.38.685 1.256.914 1.94.533l4.832-2.777c.343-.267.571-.533.647-.876zm1.332 2.626c-.266-.038-.57.038-.837.19l-4.832 2.777c-.685.38-.913 1.256-.532 1.94.38.686 1.255.914 1.94.533l2.701-1.56v3.12c0 .8.647 1.408 1.446 1.408.799 0 1.407-.647 1.407-1.408v-5.592c0-.761-.57-1.37-1.293-1.408zm4.946-6.088c.266.038.57-.038.837-.19l4.832-2.777c.685-.38.913-1.256.532-1.94-.38-.686-1.255-.914-1.94-.533l-2.701 1.56V1.975c0-.799-.647-1.408-1.446-1.408-.799 0-1.446.609-1.446 1.408V7.53c0 .76.609 1.37 1.332 1.407zM3.265 5.97l4.832 2.777c.266.152.533.19.837.19.723-.038 1.331-.684 1.331-1.407V1.975c0-.799-.646-1.408-1.407-1.408-.799 0-1.446.647-1.446 1.408v3.12l-2.701-1.56c-.685-.38-1.56-.152-1.94.533-.419.646-.19 1.521.494 1.902zm9.093 6.011a.412.412 0 00-.114-.266l-.57-.571a.346.346 0 00-.267-.114.412.412 0 00-.266.114l-.571.57a.411.411 0 00-.114.267c0 .076.038.19.114.267l.57.57a.345.345 0 00.267.114c.076 0 .19-.038.266-.114l.571-.57a.412.412 0 00.114-.267zm1.598.533L11.94 14.53c-.039.038-.153.114-.229.114h-.608a.411.411 0 01-.267-.114L8.82 12.514a.408.408 0 01-.076-.229v-.608c0-.076.038-.19.114-.267l2.016-2.016a.41.41 0 01.267-.114h.608a.41.41 0 01.267.114l2.016 2.016a.347.347 0 01.114.267v.608c-.076.077-.114.19-.19.229zm5.593 5.44l-4.832-2.777c-.266-.152-.57-.19-.837-.152-.723.038-1.332.684-1.332 1.408v5.554c0 .8.647 1.408 1.408 1.408.799 0 1.446-.647 1.446-1.408v-3.12l2.7 1.56c.686.38 1.561.152 1.941-.533.419-.646.19-1.521-.494-1.94zm2.549-7.533l-2.701 1.56 2.7 1.56c.686.38.914 1.256.533 1.94-.38.685-1.255.913-1.94.533l-4.832-2.778a1.644 1.644 0 01-.647-.798c-.037-.153-.076-.305-.076-.457 0-.114.039-.228.039-.342.114-.343.342-.647.646-.837l4.832-2.778c.685-.38 1.56-.152 1.94.533.457.609.19 1.484-.494 1.864" fill="#29B5E8"/></g><text x="110" y="314" text-anchor="middle" fill="#9DB0CC" font-size="12" font-weight="600">Snowflake</text></g>
<g filter="url(#tg)"><animateTransform attributeName="transform" type="translate" values="0 0; 0 -6; 0 0" dur="4.8s" begin="1.08s" repeatCount="indefinite" additive="sum"/><polygon points="232,262 278,285.0 278,307.0 232,284" fill="#8c5400"/><polygon points="278,285.0 324,262 324,284 278,307.0" fill="#603a00"/><polygon points="278,239.0 324,262 278,285.0 232,262" fill="#0d1424" stroke="#FF9900" stroke-width="1.5"/><polygon points="278,239.0 324,262 278,285.0 232,262" fill="#FF9900" fill-opacity="0.10"/><text x="278" y="267" text-anchor="middle" fill="#FF9900" font-size="13" font-weight="800">AWS</text><text x="278" y="314" text-anchor="middle" fill="#9DB0CC" font-size="12" font-weight="600">AWS</text></g>
<g filter="url(#tg)"><animateTransform attributeName="transform" type="translate" values="0 0; 0 -6; 0 0" dur="5.1s" begin="1.26s" repeatCount="indefinite" additive="sum"/><polygon points="400,262 446,285.0 446,307.0 400,284" fill="#135282"/><polygon points="446,285.0 492,262 492,284 446,307.0" fill="#0d395a"/><polygon points="446,239.0 492,262 446,285.0 400,262" fill="#0d1424" stroke="#2496ED" stroke-width="1.5"/><polygon points="446,239.0 492,262 446,285.0 400,262" fill="#2496ED" fill-opacity="0.10"/><g transform="translate(429,245) scale(1.4166666666666667)"><path d="M13.983 11.078h2.119a.186.186 0 00.186-.185V9.006a.186.186 0 00-.186-.186h-2.119a.185.185 0 00-.185.185v1.888c0 .102.083.185.185.185m-2.954-5.43h2.118a.186.186 0 00.186-.186V3.574a.186.186 0 00-.186-.185h-2.118a.185.185 0 00-.185.185v1.888c0 .102.082.185.185.185m0 2.716h2.118a.187.187 0 00.186-.186V6.29a.186.186 0 00-.186-.185h-2.118a.185.185 0 00-.185.185v1.887c0 .102.082.185.185.186m-2.93 0h2.12a.186.186 0 00.184-.186V6.29a.185.185 0 00-.185-.185H8.1a.185.185 0 00-.185.185v1.887c0 .102.083.185.185.186m-2.964 0h2.119a.186.186 0 00.185-.186V6.29a.185.185 0 00-.185-.185H5.136a.186.186 0 00-.186.185v1.887c0 .102.084.185.186.186m5.893 2.715h2.118a.186.186 0 00.186-.185V9.006a.186.186 0 00-.186-.186h-2.118a.185.185 0 00-.185.185v1.888c0 .102.082.185.185.185m-2.93 0h2.12a.185.185 0 00.184-.185V9.006a.185.185 0 00-.184-.186h-2.12a.185.185 0 00-.184.185v1.888c0 .102.083.185.185.185m-2.964 0h2.119a.185.185 0 00.185-.185V9.006a.185.185 0 00-.184-.186h-2.12a.186.186 0 00-.186.186v1.887c0 .102.084.185.186.185m-2.92 0h2.12a.185.185 0 00.184-.185V9.006a.185.185 0 00-.184-.186h-2.12a.185.185 0 00-.184.185v1.888c0 .102.082.185.185.185M23.763 9.89c-.065-.051-.672-.51-1.954-.51-.338.001-.676.03-1.01.087-.248-1.7-1.653-2.53-1.716-2.566l-.344-.199-.226.327c-.284.438-.49.922-.612 1.43-.23.97-.09 1.882.403 2.661-.595.332-1.55.413-1.744.42H.751a.751.751 0 00-.75.748 11.376 11.376 0 00.692 4.062c.545 1.428 1.355 2.48 2.41 3.124 1.18.723 3.1 1.137 5.275 1.137.983.003 1.963-.086 2.93-.266a12.248 12.248 0 003.823-1.389c.98-.567 1.86-1.288 2.61-2.136 1.252-1.418 1.998-2.997 2.553-4.4h.221c1.372 0 2.215-.549 2.68-1.009.309-.293.55-.65.707-1.046l.098-.288Z" fill="#2496ED"/></g><text x="446" y="314" text-anchor="middle" fill="#9DB0CC" font-size="12" font-weight="600">Docker</text></g>
<g filter="url(#tg)"><animateTransform attributeName="transform" type="translate" values="0 0; 0 -6; 0 0" dur="5.4s" begin="1.44s" repeatCount="indefinite" additive="sum"/><polygon points="568,262 614,285.0 614,307.0 568,284" fill="#432467"/><polygon points="614,285.0 660,262 660,284 614,307.0" fill="#2e1947"/><polygon points="614,239.0 660,262 614,285.0 568,262" fill="#0d1424" stroke="#7B42BC" stroke-width="1.5"/><polygon points="614,239.0 660,262 614,285.0 568,262" fill="#7B42BC" fill-opacity="0.10"/><g transform="translate(597,245) scale(1.4166666666666667)"><path d="M1.44 0v7.575l6.561 3.79V3.787zm21.12 4.227l-6.561 3.791v7.574l6.56-3.787zM8.72 4.23v7.575l6.561 3.787V8.018zm0 8.405v7.575L15.28 24v-7.578z" fill="#7B42BC"/></g><text x="614" y="314" text-anchor="middle" fill="#9DB0CC" font-size="12" font-weight="600">Terraform</text></g>
<g filter="url(#tg)"><animateTransform attributeName="transform" type="translate" values="0 0; 0 -6; 0 0" dur="5.7s" begin="1.62s" repeatCount="indefinite" additive="sum"/><polygon points="736,262 782,285.0 782,307.0 736,284" fill="#8c251e"/><polygon points="782,285.0 828,262 828,284 782,307.0" fill="#601915"/><polygon points="782,239.0 828,262 782,285.0 736,262" fill="#0d1424" stroke="#FF4438" stroke-width="1.5"/><polygon points="782,239.0 828,262 782,285.0 736,262" fill="#FF4438" fill-opacity="0.10"/><g transform="translate(765,245) scale(1.4166666666666667)"><path d="M22.71 13.145c-1.66 2.092-3.452 4.483-7.038 4.483-3.203 0-4.397-2.825-4.48-5.12.701 1.484 2.073 2.685 4.214 2.63 4.117-.133 6.94-3.852 6.94-7.239 0-4.05-3.022-6.972-8.268-6.972-3.752 0-8.4 1.428-11.455 3.685C2.59 6.937 3.885 9.958 4.35 9.626c2.648-1.904 4.748-3.13 6.784-3.744C8.12 9.244.886 17.05 0 18.425c.1 1.261 1.66 4.648 2.424 4.648.232 0 .431-.133.664-.365a100.49 100.49 0 0 0 5.54-6.765c.222 3.104 1.748 6.898 6.014 6.898 3.819 0 7.604-2.756 9.33-8.965.2-.764-.73-1.361-1.261-.73zm-4.349-5.013c0 1.959-1.926 2.922-3.685 2.922-.941 0-1.664-.247-2.235-.568 1.051-1.592 2.092-3.225 3.21-4.973 1.972.334 2.71 1.43 2.71 2.619z" fill="#FF4438"/></g><text x="782" y="314" text-anchor="middle" fill="#9DB0CC" font-size="12" font-weight="600">Redis</text></g>
<g filter="url(#tg)"><animateTransform attributeName="transform" type="translate" values="0 0; 0 -6; 0 0" dur="6.0s" begin="1.80s" repeatCount="indefinite" additive="sum"/><polygon points="64,394 110,417.0 110,439.0 64,416" fill="#23397b"/><polygon points="110,417.0 156,394 156,416 110,439.0" fill="#182755"/><polygon points="110,371.0 156,394 110,417.0 64,394" fill="#0d1424" stroke="#4169E1" stroke-width="1.5"/><polygon points="110,371.0 156,394 110,417.0 64,394" fill="#4169E1" fill-opacity="0.10"/><g transform="translate(93,377) scale(1.4166666666666667)"><path d="M23.5594 14.7228a.5269.5269 0 0 0-.0563-.1191c-.139-.2632-.4768-.3418-1.0074-.2321-1.6533.3411-2.2935.1312-2.5256-.0191 1.342-2.0482 2.445-4.522 3.0411-6.8297.2714-1.0507.7982-3.5237.1222-4.7316a1.5641 1.5641 0 0 0-.1509-.235C21.6931.9086 19.8007.0248 17.5099.0005c-1.4947-.0158-2.7705.3461-3.1161.4794a9.449 9.449 0 0 0-.5159-.0816 8.044 8.044 0 0 0-1.3114-.1278c-1.1822-.0184-2.2038.2642-3.0498.8406-.8573-.3211-4.7888-1.645-7.2219.0788C.9359 2.1526.3086 3.8733.4302 6.3043c.0409.818.5069 3.334 1.2423 5.7436.4598 1.5065.9387 2.7019 1.4334 3.582.553.9942 1.1259 1.5933 1.7143 1.7895.4474.1491 1.1327.1441 1.8581-.7279.8012-.9635 1.5903-1.8258 1.9446-2.2069.4351.2355.9064.3625 1.39.3772a.0569.0569 0 0 0 .0004.0041 11.0312 11.0312 0 0 0-.2472.3054c-.3389.4302-.4094.5197-1.5002.7443-.3102.064-1.1344.2339-1.1464.8115-.0025.1224.0329.2309.0919.3268.2269.4231.9216.6097 1.015.6331 1.3345.3335 2.5044.092 3.3714-.6787-.017 2.231.0775 4.4174.3454 5.0874.2212.5529.7618 1.9045 2.4692 1.9043.2505 0 .5263-.0291.8296-.0941 1.7819-.3821 2.5557-1.1696 2.855-2.9059.1503-.8707.4016-2.8753.5388-4.1012.0169-.0703.0357-.1207.057-.1362.0007-.0005.0697-.0471.4272.0307a.3673.3673 0 0 0 .0443.0068l.2539.0223.0149.001c.8468.0384 1.9114-.1426 2.5312-.4308.6438-.2988 1.8057-1.0323 1.5951-1.6698zM2.371 11.8765c-.7435-2.4358-1.1779-4.8851-1.2123-5.5719-.1086-2.1714.4171-3.6829 1.5623-4.4927 1.8367-1.2986 4.8398-.5408 6.108-.13-.0032.0032-.0066.0061-.0098.0094-2.0238 2.044-1.9758 5.536-1.9708 5.7495-.0002.0823.0066.1989.0162.3593.0348.5873.0996 1.6804-.0735 2.9184-.1609 1.1504.1937 2.2764.9728 3.0892.0806.0841.1648.1631.2518.2374-.3468.3714-1.1004 1.1926-1.9025 2.1576-.5677.6825-.9597.5517-1.0886.5087-.3919-.1307-.813-.5871-1.2381-1.3223-.4796-.839-.9635-2.0317-1.4155-3.5126zm6.0072 5.0871c-.1711-.0428-.3271-.1132-.4322-.1772.0889-.0394.2374-.0902.4833-.1409 1.2833-.2641 1.4815-.4506 1.9143-1.0002.0992-.126.2116-.2687.3673-.4426a.3549.3549 0 0 0 .0737-.1298c.1708-.1513.2724-.1099.4369-.0417.156.0646.3078.26.3695.4752.0291.1016.0619.2945-.0452.4444-.9043 1.2658-2.2216 1.2494-3.1676 1.0128zm2.094-3.988-.0525.141c-.133.3566-.2567.6881-.3334 1.003-.6674-.0021-1.3168-.2872-1.8105-.8024-.6279-.6551-.9131-1.5664-.7825-2.5004.1828-1.3079.1153-2.4468.079-3.0586-.005-.0857-.0095-.1607-.0122-.2199.2957-.2621 1.6659-.9962 2.6429-.7724.4459.1022.7176.4057.8305.928.5846 2.7038.0774 3.8307-.3302 4.7363-.084.1866-.1633.3629-.2311.5454zm7.3637 4.5725c-.0169.1768-.0358.376-.0618.5959l-.146.4383a.3547.3547 0 0 0-.0182.1077c-.0059.4747-.054.6489-.115.8693-.0634.2292-.1353.4891-.1794 1.0575-.11 1.4143-.8782 2.2267-2.4172 2.5565-1.5155.3251-1.7843-.4968-2.0212-1.2217a6.5824 6.5824 0 0 0-.0769-.2266c-.2154-.5858-.1911-1.4119-.1574-2.5551.0165-.5612-.0249-1.9013-.3302-2.6462.0044-.2932.0106-.5909.019-.8918a.3529.3529 0 0 0-.0153-.1126 1.4927 1.4927 0 0 0-.0439-.208c-.1226-.4283-.4213-.7866-.7797-.9351-.1424-.059-.4038-.1672-.7178-.0869.067-.276.1831-.5875.309-.9249l.0529-.142c.0595-.16.134-.3257.213-.5012.4265-.9476 1.0106-2.2453.3766-5.1772-.2374-1.0981-1.0304-1.6343-2.2324-1.5098-.7207.0746-1.3799.3654-1.7088.5321a5.6716 5.6716 0 0 0-.1958.1041c.0918-1.1064.4386-3.1741 1.7357-4.4823a4.0306 4.0306 0 0 1 .3033-.276.3532.3532 0 0 0 .1447-.0644c.7524-.5706 1.6945-.8506 2.802-.8325.4091.0067.8017.0339 1.1742.081 1.939.3544 3.2439 1.4468 4.0359 2.3827.8143.9623 1.2552 1.9315 1.4312 2.4543-1.3232-.1346-2.2234.1268-2.6797.779-.9926 1.4189.543 4.1729 1.2811 5.4964.1353.2426.2522.4522.2889.5413.2403.5825.5515.9713.7787 1.2552.0696.087.1372.1714.1885.245-.4008.1155-1.1208.3825-1.0552 1.717-.0123.1563-.0423.4469-.0834.8148-.0461.2077-.0702.4603-.0994.7662zm.8905-1.6211c-.0405-.8316.2691-.9185.5967-1.0105a2.8566 2.8566 0 0 0 .135-.0406 1.202 1.202 0 0 0 .1342.103c.5703.3765 1.5823.4213 3.0068.1344-.2016.1769-.5189.3994-.9533.6011-.4098.1903-1.0957.333-1.7473.3636-.7197.0336-1.0859-.0807-1.1721-.151zm.5695-9.2712c-.0059.3508-.0542.6692-.1054 1.0017-.055.3576-.112.7274-.1264 1.1762-.0142.4368.0404.8909.0932 1.3301.1066.887.216 1.8003-.2075 2.7014a3.5272 3.5272 0 0 1-.1876-.3856c-.0527-.1276-.1669-.3326-.3251-.6162-.6156-1.1041-2.0574-3.6896-1.3193-4.7446.3795-.5427 1.3408-.5661 2.1781-.463zm.2284 7.0137a12.3762 12.3762 0 0 0-.0853-.1074l-.0355-.0444c.7262-1.1995.5842-2.3862.4578-3.4385-.0519-.4318-.1009-.8396-.0885-1.2226.0129-.4061.0666-.7543.1185-1.0911.0639-.415.1288-.8443.1109-1.3505.0134-.0531.0188-.1158.0118-.1902-.0457-.4855-.5999-1.938-1.7294-3.253-.6076-.7073-1.4896-1.4972-2.6889-2.0395.5251-.1066 1.2328-.2035 2.0244-.1859 2.0515.0456 3.6746.8135 4.8242 2.2824a.908.908 0 0 1 .0667.1002c.7231 1.3556-.2762 6.2751-2.9867 10.5405zm-8.8166-6.1162c-.025.1794-.3089.4225-.6211.4225a.5821.5821 0 0 1-.0809-.0056c-.1873-.026-.3765-.144-.5059-.3156-.0458-.0605-.1203-.178-.1055-.2844.0055-.0401.0261-.0985.0925-.1488.1182-.0894.3518-.1226.6096-.0867.3163.0441.6426.1938.6113.4186zm7.9305-.4114c.0111.0792-.049.201-.1531.3102-.0683.0717-.212.1961-.4079.2232a.5456.5456 0 0 1-.075.0052c-.2935 0-.5414-.2344-.5607-.3717-.024-.1765.2641-.3106.5611-.352.297-.0414.6111.0088.6356.1851z" fill="#4169E1"/></g><text x="110" y="446" text-anchor="middle" fill="#9DB0CC" font-size="12" font-weight="600">Postgres</text></g>
<g filter="url(#tg)"><animateTransform attributeName="transform" type="translate" values="0 0; 0 -6; 0 0" dur="6.3s" begin="1.98s" repeatCount="indefinite" additive="sum"/><polygon points="232,394 278,417.0 278,439.0 232,416" fill="#8c8400"/><polygon points="278,417.0 324,394 324,416 278,439.0" fill="#605b00"/><polygon points="278,371.0 324,394 278,417.0 232,394" fill="#0d1424" stroke="#FFF000" stroke-width="1.5"/><polygon points="278,371.0 324,394 278,417.0 232,394" fill="#FFF000" fill-opacity="0.10"/><g transform="translate(261,377) scale(1.4166666666666667)"><path d="M12 0C5.363 0 0 5.363 0 12s5.363 12 12 12 12-5.363 12-12S18.637 0 12 0zM9.502 7.03a4.974 4.974 0 0 1 4.97 4.97 4.974 4.974 0 0 1-4.97 4.97A4.974 4.974 0 0 1 4.532 12a4.974 4.974 0 0 1 4.97-4.97zm6.563 3.183h2.351c.98 0 1.787.782 1.787 1.762s-.807 1.789-1.787 1.789h-2.351v-3.551z" fill="#FFF000"/></g><text x="278" y="446" text-anchor="middle" fill="#9DB0CC" font-size="12" font-weight="600">DuckDB</text></g>
<g filter="url(#tg)"><animateTransform attributeName="transform" type="translate" values="0 0; 0 -6; 0 0" dur="6.6s" begin="2.16s" repeatCount="indefinite" additive="sum"/><polygon points="400,394 446,417.0 446,439.0 400,416" fill="#435b8c"/><polygon points="446,417.0 492,394 492,416 446,439.0" fill="#2e3f60"/><polygon points="446,371.0 492,394 446,417.0 400,394" fill="#0d1424" stroke="#7BA7FF" stroke-width="1.5"/><polygon points="446,371.0 492,394 446,417.0 400,394" fill="#7BA7FF" fill-opacity="0.10"/><g transform="translate(429,377) scale(1.4166666666666667)"><path d="M23.0325 11.2963c-.0503 0-.1006 0-.1508.0126l-4.021-7.4387c.0754-.1383.1131-.289.1131-.4524 0-.5403-.4398-.9675-.9675-.9675-.2765 0-.5278.113-.7037.3015L9.286 1.156C9.2357.6785 8.821.3016 8.3184.3016c-.5277 0-.9675.4398-.9675.9675 0 .1634.0377.3141.113.4524l-6.245 8.9591c-.0753-.0251-.1633-.0377-.2513-.0377-.5403 0-.9675.4398-.9675.9676 0 .5403.4398.9675.9675.9675h.0377l3.3676 8.3309c-.0503.1257-.088.2639-.088.402 0 .5404.4398.9676.9676.9676.2764 0 .5277-.113.7036-.3015l10.1152.9926c.1005.4273.49.7288.9424.7288.5403 0 .9676-.4398.9676-.9675 0-.2388-.088-.465-.2262-.6283l5.1141-8.8712c.0503.0126.1005.0126.1634.0126.5403 0 .9675-.4398.9675-.9676 0-.5403-.4272-.98-.9675-.98zM17.2272 4.021c.1131.1508.2765.264.4524.3267l-1.533 11.5728c-.1005.0252-.1885.0503-.2764.1005L7.4513 8.708c.0251-.0754.0377-.1634.0377-.2514 0-.0628-.0126-.1256-.0126-.1884zm4.8754 8.5068l-5.177 3.556a1.105 1.105 0 0 0-.1256-.0753L18.3455 4.335h.0126l3.9456 7.288c-.1508.1759-.2388.3895-.2388.6408 0 .1005.0126.1885.0377.2638zM6.3832 7.5016c-.4649.0754-.8293.4775-.8293.955v.0628l-3.4555 2.0481 5.378-7.7026zm.3519 1.91c.1256-.0252.2513-.088.3518-.1634l8.356 7.2628c-.0377.113-.0628.2262-.0628.3518v.0503l-9.311 3.845c-.1382-.201-.3518-.3518-.6031-.402zm8.8963 8.1172c.1257.1382.3016.2513.5026.289l.465 4.046c-.201.1006-.3519.264-.4524.4524l-9.8136-.955zm1.1435.2136c.3267-.1633.5403-.49.5403-.867 0-.088-.0126-.1634-.0377-.2513l4.7372-3.2545-4.8 8.331zm.2513-14.3497l-9.889 4.31-.1131-.0755 1.2565-5.3906h.0377c.3393 0 .6409-.1759.8168-.4397l7.891 1.5706zM1.935 11.6105c0-.0629-.0126-.1257-.0126-.1885l3.9079-2.2995c.0754.0754.1633.1508.2638.201L4.8252 20.243l-3.2043-7.9036c.1885-.176.3142-.4398.3142-.7288Z" fill="#7BA7FF"/></g><text x="446" y="446" text-anchor="middle" fill="#9DB0CC" font-size="12" font-weight="600">ONNX</text></g>
<g filter="url(#tg)"><animateTransform attributeName="transform" type="translate" values="0 0; 0 -6; 0 0" dur="6.9s" begin="2.34s" repeatCount="indefinite" additive="sum"/><polygon points="568,394 614,417.0 614,439.0 568,416" fill="#00524a"/><polygon points="614,417.0 660,394 660,416 614,439.0" fill="#003933"/><polygon points="614,371.0 660,394 614,417.0 568,394" fill="#0d1424" stroke="#009688" stroke-width="1.5"/><polygon points="614,371.0 660,394 614,417.0 568,394" fill="#009688" fill-opacity="0.10"/><g transform="translate(597,377) scale(1.4166666666666667)"><path d="M12 .0387C5.3729.0384.0003 5.3931 0 11.9988c-.001 6.6066 5.372 11.9628 12 11.9625 6.628.0003 12.001-5.3559 12-11.9625-.0003-6.6057-5.3729-11.9604-12-11.96m-.829 5.4153h7.55l-7.5805 5.3284h5.1828L5.279 18.5436q2.9466-6.5444 5.892-13.0896" fill="#009688"/></g><text x="614" y="446" text-anchor="middle" fill="#9DB0CC" font-size="12" font-weight="600">FastAPI</text></g>
<g filter="url(#tg)"><animateTransform attributeName="transform" type="translate" values="0 0; 0 -6; 0 0" dur="7.2s" begin="2.52s" repeatCount="indefinite" additive="sum"/><polygon points="736,394 782,417.0 782,439.0 736,416" fill="#863900"/><polygon points="782,417.0 828,394 828,416 782,439.0" fill="#5c2700"/><polygon points="782,371.0 828,394 782,417.0 736,394" fill="#0d1424" stroke="#F46800" stroke-width="1.5"/><polygon points="782,371.0 828,394 782,417.0 736,394" fill="#F46800" fill-opacity="0.10"/><g transform="translate(765,377) scale(1.4166666666666667)"><path d="M23.02 10.59a8.578 8.578 0 0 0-.862-3.034 8.911 8.911 0 0 0-1.789-2.445c.337-1.342-.413-2.505-.413-2.505-1.292-.08-2.113.4-2.416.62-.052-.02-.102-.044-.154-.064-.22-.089-.446-.172-.677-.247-.231-.073-.47-.14-.711-.197a9.867 9.867 0 0 0-.875-.161C14.557.753 12.94 0 12.94 0c-1.804 1.145-2.147 2.744-2.147 2.744l-.018.093c-.098.029-.2.057-.298.088-.138.042-.275.094-.413.143-.138.055-.275.107-.41.166a8.869 8.869 0 0 0-1.557.87l-.063-.029c-2.497-.955-4.716.195-4.716.195-.203 2.658.996 4.33 1.235 4.636a11.608 11.608 0 0 0-.607 2.635C1.636 12.677.953 15.014.953 15.014c1.926 2.214 4.171 2.351 4.171 2.351.003-.002.006-.002.006-.005.285.509.615.994.986 1.446.156.19.32.371.488.548-.704 2.009.099 3.68.099 3.68 2.144.08 3.553-.937 3.849-1.173a9.784 9.784 0 0 0 3.164.501h.08l.055-.003.107-.002.103-.005.003.002c1.01 1.44 2.788 1.646 2.788 1.646 1.264-1.332 1.337-2.653 1.337-2.94v-.058c0-.02-.003-.039-.003-.06.265-.187.52-.387.758-.6a7.875 7.875 0 0 0 1.415-1.7c1.43.083 2.437-.885 2.437-.885-.236-1.49-1.085-2.216-1.264-2.354l-.018-.013-.016-.013a.217.217 0 0 1-.031-.02c.008-.092.016-.18.02-.27.011-.162.016-.323.016-.48v-.253l-.005-.098-.008-.135a1.891 1.891 0 0 0-.01-.13c-.003-.042-.008-.083-.013-.125l-.016-.124-.018-.122a6.215 6.215 0 0 0-2.032-3.73 6.015 6.015 0 0 0-3.222-1.46 6.292 6.292 0 0 0-.85-.048l-.107.002h-.063l-.044.003-.104.008a4.777 4.777 0 0 0-3.335 1.695c-.332.4-.592.84-.768 1.297a4.594 4.594 0 0 0-.312 1.817l.003.091c.005.055.007.11.013.164a3.615 3.615 0 0 0 .698 1.82 3.53 3.53 0 0 0 1.827 1.282c.33.098.66.14.971.137.039 0 .078 0 .114-.002l.063-.003c.02 0 .041-.003.062-.003.034-.002.065-.007.099-.01.007 0 .018-.003.028-.003l.031-.005.06-.008a1.18 1.18 0 0 0 .112-.02c.036-.008.072-.013.109-.024a2.634 2.634 0 0 0 .914-.415c.028-.02.056-.041.085-.065a.248.248 0 0 0 .039-.35.244.244 0 0 0-.309-.06l-.078.042c-.09.044-.184.083-.283.116a2.476 2.476 0 0 1-.475.096c-.028.003-.054.006-.083.006l-.083.002c-.026 0-.054 0-.08-.002l-.102-.006h-.012l-.024.006c-.016-.003-.031-.003-.044-.006-.031-.002-.06-.007-.091-.01a2.59 2.59 0 0 1-.724-.213 2.557 2.557 0 0 1-.667-.438 2.52 2.52 0 0 1-.805-1.475 2.306 2.306 0 0 1-.029-.444l.006-.122v-.023l.002-.031c.003-.021.003-.04.005-.06a3.163 3.163 0 0 1 1.352-2.29 3.12 3.12 0 0 1 .937-.43 2.946 2.946 0 0 1 .776-.101h.06l.07.002.045.003h.026l.07.005a4.041 4.041 0 0 1 1.635.49 3.94 3.94 0 0 1 1.602 1.662 3.77 3.77 0 0 1 .397 1.414l.005.076.003.075c.002.026.002.05.002.075 0 .024.003.052 0 .07v.065l-.002.073-.008.174a6.195 6.195 0 0 1-.08.639 5.1 5.1 0 0 1-.267.927 5.31 5.31 0 0 1-.624 1.13 5.052 5.052 0 0 1-3.237 2.014 4.82 4.82 0 0 1-.649.066l-.039.003h-.287a6.607 6.607 0 0 1-1.716-.265 6.776 6.776 0 0 1-3.4-2.274 6.75 6.75 0 0 1-.746-1.15 6.616 6.616 0 0 1-.714-2.596l-.005-.083-.002-.02v-.056l-.003-.073v-.096l-.003-.104v-.07l.003-.163c.008-.22.026-.45.054-.678a8.707 8.707 0 0 1 .28-1.355c.128-.444.286-.872.473-1.277a7.04 7.04 0 0 1 1.456-2.1 5.925 5.925 0 0 1 .953-.763c.169-.111.343-.213.524-.306.089-.05.182-.091.273-.135.047-.02.093-.042.138-.062a7.177 7.177 0 0 1 .714-.267l.145-.045c.049-.015.098-.026.148-.041.098-.029.197-.052.296-.076.049-.013.1-.02.15-.033l.15-.032.151-.028.076-.013.075-.01.153-.024c.057-.01.114-.013.171-.023l.169-.021c.036-.003.073-.008.106-.01l.073-.008.036-.003.042-.002c.057-.003.114-.008.171-.01l.086-.006h.023l.037-.003.145-.007a7.999 7.999 0 0 1 1.708.125 7.917 7.917 0 0 1 2.048.68 8.253 8.253 0 0 1 1.672 1.09l.09.077.089.078c.06.052.114.107.171.159.057.052.112.106.166.16.052.055.107.107.159.164a8.671 8.671 0 0 1 1.41 1.978c.012.026.028.052.04.078l.04.078.075.156c.023.051.05.1.07.153l.065.15a8.848 8.848 0 0 1 .45 1.34.19.19 0 0 0 .201.142.186.186 0 0 0 .172-.184c.01-.246.002-.532-.024-.856z" fill="#F46800"/></g><text x="782" y="446" text-anchor="middle" fill="#9DB0CC" font-size="12" font-weight="600">Grafana</text></g>
<g filter="url(#tg)"><animateTransform attributeName="transform" type="translate" values="0 0; 0 -6; 0 0" dur="7.5s" begin="2.70s" repeatCount="indefinite" additive="sum"/><polygon points="64,526 110,549.0 110,571.0 64,548" fill="#7e2d18"/><polygon points="110,549.0 156,526 156,548 110,571.0" fill="#571f10"/><polygon points="110,503.0 156,526 110,549.0 64,526" fill="#0d1424" stroke="#E6522C" stroke-width="1.5"/><polygon points="110,503.0 156,526 110,549.0 64,526" fill="#E6522C" fill-opacity="0.10"/><g transform="translate(93,509) scale(1.4166666666666667)"><path d="M12 0C5.373 0 0 5.372 0 12c0 6.627 5.373 12 12 12s12-5.373 12-12c0-6.628-5.373-12-12-12zm0 22.46c-1.885 0-3.414-1.26-3.414-2.814h6.828c0 1.553-1.528 2.813-3.414 2.813zm5.64-3.745H6.36v-2.046h11.28v2.046zm-.04-3.098H6.391c-.037-.043-.075-.086-.111-.13-1.155-1.401-1.427-2.133-1.69-2.879-.005-.025 1.4.287 2.395.511 0 0 .513.119 1.262.255-.72-.843-1.147-1.915-1.147-3.01 0-2.406 1.845-4.508 1.18-6.207.648.053 1.34 1.367 1.387 3.422.689-.951.977-2.69.977-3.755 0-1.103.727-2.385 1.454-2.429-.648 1.069.168 1.984.894 4.256.272.854.237 2.29.447 3.201.07-1.892.395-4.652 1.595-5.605-.529 1.2.079 2.702.494 3.424.671 1.164 1.078 2.047 1.078 3.716a4.642 4.642 0 01-1.11 2.996c.792-.149 1.34-.283 1.34-.283l2.573-.502s-.374 1.538-1.81 3.019z" fill="#E6522C"/></g><text x="110" y="578" text-anchor="middle" fill="#9DB0CC" font-size="12" font-weight="600">Prometheus</text></g>
<g filter="url(#tg)"><animateTransform attributeName="transform" type="translate" values="0 0; 0 -6; 0 0" dur="7.8s" begin="2.88s" repeatCount="indefinite" additive="sum"/><polygon points="232,526 278,549.0 278,571.0 232,548" fill="#1a426c"/><polygon points="278,549.0 324,526 324,548 278,571.0" fill="#122d4b"/><polygon points="278,503.0 324,526 278,549.0 232,526" fill="#0d1424" stroke="#3178C6" stroke-width="1.5"/><polygon points="278,503.0 324,526 278,549.0 232,526" fill="#3178C6" fill-opacity="0.10"/><g transform="translate(261,509) scale(1.4166666666666667)"><path d="M1.125 0C.502 0 0 .502 0 1.125v21.75C0 23.498.502 24 1.125 24h21.75c.623 0 1.125-.502 1.125-1.125V1.125C24 .502 23.498 0 22.875 0zm17.363 9.75c.612 0 1.154.037 1.627.111a6.38 6.38 0 0 1 1.306.34v2.458a3.95 3.95 0 0 0-.643-.361 5.093 5.093 0 0 0-.717-.26 5.453 5.453 0 0 0-1.426-.2c-.3 0-.573.028-.819.086a2.1 2.1 0 0 0-.623.242c-.17.104-.3.229-.393.374a.888.888 0 0 0-.14.49c0 .196.053.373.156.529.104.156.252.304.443.444s.423.276.696.41c.273.135.582.274.926.416.47.197.892.407 1.266.628.374.222.695.473.963.753.268.279.472.598.614.957.142.359.214.776.214 1.253 0 .657-.125 1.21-.373 1.656a3.033 3.033 0 0 1-1.012 1.085 4.38 4.38 0 0 1-1.487.596c-.566.12-1.163.18-1.79.18a9.916 9.916 0 0 1-1.84-.164 5.544 5.544 0 0 1-1.512-.493v-2.63a5.033 5.033 0 0 0 3.237 1.2c.333 0 .624-.03.872-.09.249-.06.456-.144.623-.25.166-.108.29-.234.373-.38a1.023 1.023 0 0 0-.074-1.089 2.12 2.12 0 0 0-.537-.5 5.597 5.597 0 0 0-.807-.444 27.72 27.72 0 0 0-1.007-.436c-.918-.383-1.602-.852-2.053-1.405-.45-.553-.676-1.222-.676-2.005 0-.614.123-1.141.369-1.582.246-.441.58-.804 1.004-1.089a4.494 4.494 0 0 1 1.47-.629 7.536 7.536 0 0 1 1.77-.201zm-15.113.188h9.563v2.166H9.506v9.646H6.789v-9.646H3.375z" fill="#3178C6"/></g><text x="278" y="578" text-anchor="middle" fill="#9DB0CC" font-size="12" font-weight="600">TypeScript</text></g>
<g filter="url(#tg)"><animateTransform attributeName="transform" type="translate" values="0 0; 0 -6; 0 0" dur="8.1s" begin="3.06s" repeatCount="indefinite" additive="sum"/><polygon points="400,526 446,549.0 446,571.0 400,548" fill="#8c8c8c"/><polygon points="446,549.0 492,526 492,548 446,571.0" fill="#606060"/><polygon points="446,503.0 492,526 446,549.0 400,526" fill="#0d1424" stroke="#FFFFFF" stroke-width="1.5"/><polygon points="446,503.0 492,526 446,549.0 400,526" fill="#FFFFFF" fill-opacity="0.10"/><g transform="translate(429,509) scale(1.4166666666666667)"><path d="M18.665 21.978C16.758 23.255 14.465 24 12 24 5.377 24 0 18.623 0 12S5.377 0 12 0s12 5.377 12 12c0 3.583-1.574 6.801-4.067 9.001L9.219 7.2H7.2v9.596h1.615V9.251l9.85 12.727Zm-3.332-8.533 1.6 2.061V7.2h-1.6v6.245Z" fill="#FFFFFF"/></g><text x="446" y="578" text-anchor="middle" fill="#9DB0CC" font-size="12" font-weight="600">Next.js</text></g>
<g filter="url(#tg)"><animateTransform attributeName="transform" type="translate" values="0 0; 0 -6; 0 0" dur="8.4s" begin="3.24s" repeatCount="indefinite" additive="sum"/><polygon points="568,526 614,549.0 614,571.0 568,548" fill="#8c8c8c"/><polygon points="614,549.0 660,526 660,548 614,571.0" fill="#606060"/><polygon points="614,503.0 660,526 614,549.0 568,526" fill="#0d1424" stroke="#FFFFFF" stroke-width="1.5"/><polygon points="614,503.0 660,526 614,549.0 568,526" fill="#FFFFFF" fill-opacity="0.10"/><g transform="translate(597,509) scale(1.4166666666666667)"><path d="M.38 0a.268.268 0 0 0-.256.332l2.894 11.716a.268.268 0 0 0 .01.04l2.89 11.708a.268.268 0 0 0 .447.128L23.802 7.15a.268.268 0 0 0-.112-.45l-5.784-1.667a.268.268 0 0 0-.123-.035L6.38 1.715a.268.268 0 0 0-.144-.04L.456.01A.268.268 0 0 0 .38 0zm.374.654L5.71 2.08 1.99 5.664zM6.61 2.34l4.864 1.4-3.65 3.515zm-.522.12l1.217 4.926-4.877-1.4zm6.28 1.538l4.878 1.404-3.662 3.53zm-.52.13l1.208 4.9-4.853-1.392zm6.3 1.534l4.947 1.424-3.715 3.574zm-.524.12l1.215 4.926-4.876-1.398zm-15.432.696l4.964 1.424-3.726 3.586zM8.047 8.15l4.877 1.4-3.66 3.527zm-.518.137l1.236 5.017-4.963-1.432zm6.274 1.535l4.965 1.425-3.73 3.586zm-.52.127l1.235 5.012-4.958-1.43zm-9.63 2.438l4.873 1.406-3.656 3.523zm5.854 1.687l4.863 1.403-3.648 3.51zm-.54.04l1.214 4.927-4.875-1.4zm-3.896 4.02l5.037 1.442-3.782 3.638z" fill="#FFFFFF"/></g><text x="614" y="578" text-anchor="middle" fill="#9DB0CC" font-size="12" font-weight="600">Three.js</text></g>
<g filter="url(#tg)"><animateTransform attributeName="transform" type="translate" values="0 0; 0 -6; 0 0" dur="8.7s" begin="3.42s" repeatCount="indefinite" additive="sum"/><polygon points="736,526 782,549.0 782,571.0 736,548" fill="#731216"/><polygon points="782,549.0 828,526 828,548 782,571.0" fill="#4f0c0f"/><polygon points="782,503.0 828,526 782,549.0 736,526" fill="#0d1424" stroke="#D22128" stroke-width="1.5"/><polygon points="782,503.0 828,526 782,549.0 736,526" fill="#D22128" fill-opacity="0.10"/><g transform="translate(765,509) scale(1.4166666666666667)"><path d="M17.805 2.197v.066h.156v.44h.072v-.44h.156v-.066zm.9 0l-.175.353-.172-.353h-.087v.506h.067V2.3l.172.35h.045l.172-.35v.404h.066v-.506zm-4.257 1c-.204.31-.424.66-.66 1.06l-.04.062a44.457 44.457 0 00-1.265 2.29c-.187.36-.38.742-.577 1.146l2.267-.25c.66-.302.955-.578 1.242-.976a15.5 15.5 0 00.23-.342c.23-.363.46-.763.663-1.16.197-.386.37-.767.505-1.11.083-.22.15-.422.198-.6.042-.158.074-.307.1-.45-.884.15-1.965.295-2.668.33zM11.894 7.78l-.077.16c-.078.16-.157.32-.236.488-.086.18-.172.364-.26.552l-.132.287a75.265 75.265 0 00-1.427 3.3c-.163.397-.327.807-.493 1.23-.15.38-.297.765-.45 1.164l-.02.06c-.15.396-.3.802-.453 1.22l-.01.027.72-.08a.213.213 0 01-.042-.006c.863-.106 2.01-.75 2.75-1.547.342-.367.652-.8.94-1.306.213-.377.413-.795.604-1.258.168-.405.328-.843.48-1.318-.196.105-.423.18-.673.235a2.184 2.184 0 01-.273.046c.806-.31 1.314-.905 1.683-1.64a2.816 2.816 0 01-.968.428c-.06.012-.116.022-.174.03l-.043.006h.002c.278-.118.514-.248.718-.403a2.571 2.571 0 00.637-.698l.063-.104.077-.154a8.107 8.107 0 00.367-.85l.03-.088a3.04 3.04 0 00.123-.463.733.733 0 01-.094.065c-.243.145-.66.277-.996.34l.663-.074-.664.073h-.017l-.1.017c.006-.003.01-.006.017-.008l-2.265.25-.013.022zM8.27 16.45c-.117.323-.236.654-.355.992l-.005.015c-.016.046-.032.094-.05.142-.08.227-.15.432-.31.9.264.12.475.435.675.793a1.44 1.44 0 00-.466-.99c1.293.06 2.41-.27 2.99-1.217.05-.084.096-.173.14-.268-.26.333-.59.474-1.2.44 0 0-.004 0-.005.002l.004-.002c.9-.404 1.354-.79 1.754-1.433.094-.153.186-.32.28-.503-.788.81-1.702 1.04-2.664.865l-.72.078a6.43 6.43 0 00-.067.183zM15.42.112c-.376.222-1 .85-1.748 1.763l.686 1.294c.48-.687.97-1.307 1.462-1.836l.058-.062c-.02.02-.04.04-.057.062-.16.176-.644.74-1.375 1.863.703-.035 1.784-.18 2.666-.33.262-1.47-.258-2.142-.258-2.142s-.66-1.07-1.436-.61zm-3.084 6.402a40.253 40.253 0 011.306-2.26l.04-.064c.224-.352.45-.693.677-1.02l-.685-1.293-.157.192c-.197.245-.403.51-.613.79a39.853 39.853 0 00-2.016 2.97l-.022.038.893 1.763c.19-.378.38-.752.575-1.118zm-3.73 8.32c.158-.406.319-.81.483-1.225.156-.394.32-.79.484-1.19a91.133 91.133 0 011.6-3.604l.205-.424c.12-.243.237-.485.36-.724a.125.125 0 01.02-.04l-.895-1.763-.044.07c-.207.34-.414.687-.617 1.042a38.056 38.056 0 00-1.092 2.04l-.094.193a24.573 24.573 0 00-1.258 3.087 18.492 18.492 0 00-.52 1.997l.896 1.77c.117-.317.24-.638.364-.963zm-1.376-.476a13.38 13.38 0 00-.234 1.692c0 .02-.004.04-.005.06-.28-.45-1.03-.888-1.026-.884.537.778.944 1.55 1.005 2.31-.29.058-.684-.027-1.14-.195.475.436.83.556.97.588-.434.03-.89.328-1.346.67.668-.27 1.21-.38 1.596-.29-.61 1.74-1.23 3.655-1.843 5.69a.538.538 0 00.364-.354c.11-.368.84-2.786 1.978-5.965l.097-.27.028-.078c.12-.332.246-.672.374-1.02l.09-.237v-.004L7.24 14.3c-.003.02-.01.04-.012.06z" fill="#D22128"/></g><text x="782" y="578" text-anchor="middle" fill="#9DB0CC" font-size="12" font-weight="600">Iceberg</text></g>
</svg>